G04*
G04 #@! TF.GenerationSoftware,Altium Limited,Altium Designer,21.4.1 (30)*
G04*
G04 Layer_Physical_Order=4*
G04 Layer_Color=16711680*
%FSLAX25Y25*%
%MOIN*%
G70*
G04*
G04 #@! TF.SameCoordinates,6122799F-D76E-4B8B-AD8C-C151083860E1*
G04*
G04*
G04 #@! TF.FilePolarity,Positive*
G04*
G01*
G75*
%ADD15C,0.06299*%
%ADD16R,0.06299X0.06299*%
%ADD19C,0.01968*%
G36*
X241000Y52500D02*
X119000D01*
Y179500D01*
X241000D01*
Y52500D01*
D02*
G37*
%LPC*%
G36*
X169000Y149780D02*
X168022Y149652D01*
X167110Y149274D01*
X166327Y148673D01*
X165726Y147890D01*
X165348Y146978D01*
X165220Y146000D01*
X165348Y145022D01*
X165726Y144110D01*
X166327Y143327D01*
X167110Y142726D01*
X168022Y142348D01*
X169000Y142220D01*
X169978Y142348D01*
X170890Y142726D01*
X171673Y143327D01*
X172274Y144110D01*
X172652Y145022D01*
X172780Y146000D01*
X172652Y146978D01*
X172274Y147890D01*
X171673Y148673D01*
X170890Y149274D01*
X169978Y149652D01*
X169000Y149780D01*
D02*
G37*
G36*
Y139780D02*
X168022Y139652D01*
X167110Y139274D01*
X166327Y138673D01*
X165726Y137890D01*
X165348Y136978D01*
X165220Y136000D01*
X165348Y135022D01*
X165726Y134110D01*
X166327Y133327D01*
X167110Y132726D01*
X168022Y132348D01*
X169000Y132220D01*
X169978Y132348D01*
X170890Y132726D01*
X171673Y133327D01*
X172274Y134110D01*
X172652Y135022D01*
X172780Y136000D01*
X172652Y136978D01*
X172274Y137890D01*
X171673Y138673D01*
X170890Y139274D01*
X169978Y139652D01*
X169000Y139780D01*
D02*
G37*
G36*
X159000D02*
X158022Y139652D01*
X157110Y139274D01*
X156327Y138673D01*
X155726Y137890D01*
X155348Y136978D01*
X155220Y136000D01*
X155348Y135022D01*
X155726Y134110D01*
X156327Y133327D01*
X157110Y132726D01*
X158022Y132348D01*
X159000Y132220D01*
X159978Y132348D01*
X160890Y132726D01*
X161673Y133327D01*
X162274Y134110D01*
X162652Y135022D01*
X162780Y136000D01*
X162652Y136978D01*
X162274Y137890D01*
X161673Y138673D01*
X160890Y139274D01*
X159978Y139652D01*
X159000Y139780D01*
D02*
G37*
G36*
X169000Y129780D02*
X168022Y129652D01*
X167110Y129274D01*
X166327Y128673D01*
X165726Y127890D01*
X165348Y126978D01*
X165220Y126000D01*
X165348Y125022D01*
X165726Y124110D01*
X166327Y123327D01*
X167110Y122726D01*
X168022Y122348D01*
X169000Y122220D01*
X169978Y122348D01*
X170890Y122726D01*
X171673Y123327D01*
X172274Y124110D01*
X172652Y125022D01*
X172780Y126000D01*
X172652Y126978D01*
X172274Y127890D01*
X171673Y128673D01*
X170890Y129274D01*
X169978Y129652D01*
X169000Y129780D01*
D02*
G37*
G36*
X159000D02*
X158022Y129652D01*
X157110Y129274D01*
X156327Y128673D01*
X155726Y127890D01*
X155348Y126978D01*
X155220Y126000D01*
X155348Y125022D01*
X155726Y124110D01*
X156327Y123327D01*
X157110Y122726D01*
X158022Y122348D01*
X159000Y122220D01*
X159978Y122348D01*
X160890Y122726D01*
X161673Y123327D01*
X162274Y124110D01*
X162652Y125022D01*
X162780Y126000D01*
X162652Y126978D01*
X162274Y127890D01*
X161673Y128673D01*
X160890Y129274D01*
X159978Y129652D01*
X159000Y129780D01*
D02*
G37*
G36*
X169000Y119780D02*
X168022Y119652D01*
X167110Y119274D01*
X166327Y118673D01*
X165726Y117890D01*
X165348Y116978D01*
X165220Y116000D01*
X165348Y115022D01*
X165726Y114110D01*
X166327Y113327D01*
X167110Y112726D01*
X168022Y112348D01*
X169000Y112220D01*
X169978Y112348D01*
X170890Y112726D01*
X171673Y113327D01*
X172274Y114110D01*
X172652Y115022D01*
X172780Y116000D01*
X172652Y116978D01*
X172274Y117890D01*
X171673Y118673D01*
X170890Y119274D01*
X169978Y119652D01*
X169000Y119780D01*
D02*
G37*
G36*
X159000D02*
X158022Y119652D01*
X157110Y119274D01*
X156327Y118673D01*
X155726Y117890D01*
X155348Y116978D01*
X155220Y116000D01*
X155348Y115022D01*
X155726Y114110D01*
X156327Y113327D01*
X157110Y112726D01*
X158022Y112348D01*
X159000Y112220D01*
X159978Y112348D01*
X160890Y112726D01*
X161673Y113327D01*
X162274Y114110D01*
X162652Y115022D01*
X162780Y116000D01*
X162652Y116978D01*
X162274Y117890D01*
X161673Y118673D01*
X160890Y119274D01*
X159978Y119652D01*
X159000Y119780D01*
D02*
G37*
G36*
X169000Y109780D02*
X168022Y109652D01*
X167110Y109274D01*
X166327Y108673D01*
X165726Y107890D01*
X165348Y106978D01*
X165220Y106000D01*
X165348Y105022D01*
X165726Y104110D01*
X166327Y103327D01*
X167110Y102726D01*
X168022Y102348D01*
X169000Y102220D01*
X169978Y102348D01*
X170890Y102726D01*
X171673Y103327D01*
X172274Y104110D01*
X172652Y105022D01*
X172780Y106000D01*
X172652Y106978D01*
X172274Y107890D01*
X171673Y108673D01*
X170890Y109274D01*
X169978Y109652D01*
X169000Y109780D01*
D02*
G37*
G36*
X159000D02*
X158022Y109652D01*
X157110Y109274D01*
X156327Y108673D01*
X155726Y107890D01*
X155348Y106978D01*
X155220Y106000D01*
X155348Y105022D01*
X155726Y104110D01*
X156327Y103327D01*
X157110Y102726D01*
X158022Y102348D01*
X159000Y102220D01*
X159978Y102348D01*
X160890Y102726D01*
X161673Y103327D01*
X162274Y104110D01*
X162652Y105022D01*
X162780Y106000D01*
X162652Y106978D01*
X162274Y107890D01*
X161673Y108673D01*
X160890Y109274D01*
X159978Y109652D01*
X159000Y109780D01*
D02*
G37*
G36*
X169000Y99780D02*
X168022Y99652D01*
X167110Y99274D01*
X166327Y98673D01*
X165726Y97890D01*
X165348Y96978D01*
X165220Y96000D01*
X165348Y95022D01*
X165726Y94110D01*
X166327Y93327D01*
X167110Y92726D01*
X168022Y92348D01*
X169000Y92220D01*
X169978Y92348D01*
X170890Y92726D01*
X171673Y93327D01*
X172274Y94110D01*
X172652Y95022D01*
X172780Y96000D01*
X172652Y96978D01*
X172274Y97890D01*
X171673Y98673D01*
X170890Y99274D01*
X169978Y99652D01*
X169000Y99780D01*
D02*
G37*
G36*
X159000D02*
X158022Y99652D01*
X157110Y99274D01*
X156327Y98673D01*
X155726Y97890D01*
X155348Y96978D01*
X155220Y96000D01*
X155348Y95022D01*
X155726Y94110D01*
X156327Y93327D01*
X157110Y92726D01*
X158022Y92348D01*
X159000Y92220D01*
X159978Y92348D01*
X160890Y92726D01*
X161673Y93327D01*
X162274Y94110D01*
X162652Y95022D01*
X162780Y96000D01*
X162652Y96978D01*
X162274Y97890D01*
X161673Y98673D01*
X160890Y99274D01*
X159978Y99652D01*
X159000Y99780D01*
D02*
G37*
G36*
X172748Y89748D02*
X165252D01*
Y82252D01*
X172748D01*
Y89748D01*
D02*
G37*
G36*
X159000Y89780D02*
X158022Y89652D01*
X157110Y89274D01*
X156327Y88673D01*
X155726Y87890D01*
X155348Y86978D01*
X155220Y86000D01*
X155348Y85022D01*
X155726Y84110D01*
X156327Y83327D01*
X157110Y82726D01*
X158022Y82348D01*
X159000Y82220D01*
X159978Y82348D01*
X160890Y82726D01*
X161673Y83327D01*
X162274Y84110D01*
X162652Y85022D01*
X162780Y86000D01*
X162652Y86978D01*
X162274Y87890D01*
X161673Y88673D01*
X160890Y89274D01*
X159978Y89652D01*
X159000Y89780D01*
D02*
G37*
%LPD*%
D15*
X169000Y146000D02*
D03*
X159000D02*
D03*
Y136000D02*
D03*
X169000D02*
D03*
X159000Y126000D02*
D03*
X169000D02*
D03*
X159000Y116000D02*
D03*
X169000D02*
D03*
X159000Y106000D02*
D03*
X169000D02*
D03*
X159000Y96000D02*
D03*
X169000D02*
D03*
X159000Y86000D02*
D03*
D16*
X169000D02*
D03*
D19*
X235000Y170000D02*
D03*
X230000Y160000D02*
D03*
X235000Y150000D02*
D03*
X230000Y140000D02*
D03*
X235000Y130000D02*
D03*
X230000Y120000D02*
D03*
X235000Y110000D02*
D03*
X230000Y100000D02*
D03*
X235000Y90000D02*
D03*
X230000Y80000D02*
D03*
X235000Y70000D02*
D03*
X230000Y60000D02*
D03*
X225000Y170000D02*
D03*
X220000Y140000D02*
D03*
X225000Y130000D02*
D03*
X220000Y120000D02*
D03*
X225000Y110000D02*
D03*
X220000Y100000D02*
D03*
X225000Y90000D02*
D03*
Y70000D02*
D03*
X220000Y60000D02*
D03*
X215000Y170000D02*
D03*
X210000Y160000D02*
D03*
X215000Y150000D02*
D03*
Y70000D02*
D03*
X210000Y60000D02*
D03*
X205000Y170000D02*
D03*
X200000Y160000D02*
D03*
X205000Y150000D02*
D03*
Y70000D02*
D03*
X200000Y60000D02*
D03*
X195000Y170000D02*
D03*
X190000Y160000D02*
D03*
X195000Y70000D02*
D03*
X190000Y60000D02*
D03*
X185000Y170000D02*
D03*
X180000Y160000D02*
D03*
X185000Y70000D02*
D03*
X180000Y60000D02*
D03*
X175000Y170000D02*
D03*
X170000Y160000D02*
D03*
X175000Y70000D02*
D03*
X170000Y60000D02*
D03*
X165000Y170000D02*
D03*
X160000Y160000D02*
D03*
X165000Y70000D02*
D03*
X160000Y60000D02*
D03*
X155000Y170000D02*
D03*
X150000Y160000D02*
D03*
X155000Y150000D02*
D03*
X150000Y140000D02*
D03*
Y120000D02*
D03*
Y100000D02*
D03*
Y80000D02*
D03*
X155000Y70000D02*
D03*
X150000Y60000D02*
D03*
X145000Y170000D02*
D03*
X140000Y160000D02*
D03*
X145000Y150000D02*
D03*
X140000Y140000D02*
D03*
X145000Y130000D02*
D03*
X140000Y120000D02*
D03*
X145000Y110000D02*
D03*
X140000Y100000D02*
D03*
X145000Y90000D02*
D03*
X140000Y80000D02*
D03*
X145000Y70000D02*
D03*
X140000Y60000D02*
D03*
X135000Y170000D02*
D03*
X130000Y160000D02*
D03*
X135000Y150000D02*
D03*
X130000Y140000D02*
D03*
X135000Y130000D02*
D03*
X130000Y120000D02*
D03*
X135000Y110000D02*
D03*
X130000Y100000D02*
D03*
X135000Y90000D02*
D03*
X130000Y80000D02*
D03*
X135000Y70000D02*
D03*
X130000Y60000D02*
D03*
X125000Y170000D02*
D03*
Y150000D02*
D03*
Y130000D02*
D03*
Y110000D02*
D03*
Y90000D02*
D03*
Y70000D02*
D03*
X215000Y139500D02*
D03*
M02*
