G04*
G04 #@! TF.GenerationSoftware,Altium Limited,Altium Designer,21.4.1 (30)*
G04*
G04 Layer_Color=65535*
%FSLAX25Y25*%
%MOIN*%
G70*
G04*
G04 #@! TF.SameCoordinates,6122799F-D76E-4B8B-AD8C-C151083860E1*
G04*
G04*
G04 #@! TF.FilePolarity,Positive*
G04*
G01*
G75*
%ADD10C,0.00787*%
%ADD11C,0.00600*%
%ADD12C,0.01000*%
G36*
X219568Y175859D02*
X219635Y175840D01*
X219712Y175821D01*
X219798Y175783D01*
X219874Y175735D01*
X219951Y175668D01*
X219960Y175659D01*
X219979Y175630D01*
X220018Y175592D01*
X220056Y175534D01*
X220085Y175467D01*
X220123Y175381D01*
X220142Y175276D01*
X220151Y175171D01*
Y172915D01*
Y172905D01*
Y172896D01*
X220142Y172838D01*
X220132Y172762D01*
X220104Y172657D01*
X220065Y172552D01*
X219999Y172427D01*
X219912Y172322D01*
X219798Y172217D01*
X218679Y171433D01*
X219807Y170649D01*
X219826Y170640D01*
X219865Y170601D01*
X219922Y170544D01*
X219989Y170467D01*
X220056Y170362D01*
X220113Y170238D01*
X220151Y170095D01*
X220171Y169932D01*
Y167188D01*
Y167179D01*
Y167140D01*
X220161Y167083D01*
X220142Y167016D01*
X220123Y166930D01*
X220085Y166854D01*
X220037Y166768D01*
X219970Y166691D01*
X219960Y166682D01*
X219932Y166663D01*
X219893Y166634D01*
X219836Y166596D01*
X219769Y166557D01*
X219683Y166529D01*
X219578Y166510D01*
X219473Y166500D01*
X217064D01*
X217006Y166510D01*
X216939Y166529D01*
X216853Y166548D01*
X216777Y166577D01*
X216691Y166624D01*
X216614Y166691D01*
X216605Y166701D01*
X216586Y166729D01*
X216557Y166768D01*
X216519Y166825D01*
X216480Y166902D01*
X216452Y166978D01*
X216433Y167083D01*
X216423Y167188D01*
Y169540D01*
X217255D01*
Y167236D01*
X219329D01*
Y170095D01*
X217675Y171337D01*
Y171519D01*
X219310Y172743D01*
Y175133D01*
X217264D01*
Y173029D01*
X216433D01*
Y175171D01*
Y175180D01*
Y175219D01*
X216442Y175276D01*
X216461Y175353D01*
X216480Y175429D01*
X216509Y175505D01*
X216557Y175592D01*
X216624Y175668D01*
X216633Y175678D01*
X216662Y175697D01*
X216700Y175735D01*
X216758Y175773D01*
X216834Y175802D01*
X216920Y175840D01*
X217016Y175859D01*
X217121Y175869D01*
X219511D01*
X219568Y175859D01*
D02*
G37*
G36*
X237044Y175859D02*
X237111Y175840D01*
X237187Y175821D01*
X237273Y175783D01*
X237350Y175735D01*
X237426Y175668D01*
X237436Y175659D01*
X237455Y175630D01*
X237484Y175592D01*
X237522Y175534D01*
X237560Y175467D01*
X237589Y175381D01*
X237608Y175276D01*
X237618Y175171D01*
Y172552D01*
Y172532D01*
Y172485D01*
X237598Y172408D01*
X237579Y172322D01*
X237541Y172226D01*
X237484Y172121D01*
X237407Y172026D01*
X237302Y171949D01*
X236423Y171395D01*
X237321Y170812D01*
X237331Y170802D01*
X237369Y170773D01*
X237426Y170726D01*
X237484Y170659D01*
X237541Y170573D01*
X237598Y170467D01*
X237637Y170343D01*
X237646Y170200D01*
Y167188D01*
Y167179D01*
Y167140D01*
X237637Y167083D01*
X237618Y167016D01*
X237598Y166930D01*
X237560Y166854D01*
X237512Y166768D01*
X237445Y166691D01*
X237436Y166682D01*
X237407Y166663D01*
X237369Y166634D01*
X237312Y166596D01*
X237235Y166557D01*
X237149Y166529D01*
X237053Y166510D01*
X236948Y166500D01*
X234482D01*
X234424Y166510D01*
X234358Y166529D01*
X234272Y166548D01*
X234195Y166577D01*
X234109Y166624D01*
X234033Y166691D01*
X234023Y166701D01*
X234004Y166729D01*
X233975Y166768D01*
X233937Y166825D01*
X233899Y166902D01*
X233870Y166978D01*
X233851Y167083D01*
X233841Y167188D01*
Y170200D01*
Y170209D01*
Y170219D01*
X233851Y170267D01*
X233860Y170343D01*
X233880Y170429D01*
X233918Y170534D01*
X233966Y170630D01*
X234042Y170726D01*
X234138Y170812D01*
X235055Y171395D01*
X234166Y171949D01*
X234157Y171959D01*
X234119Y171987D01*
X234071Y172035D01*
X234013Y172093D01*
X233956Y172179D01*
X233908Y172284D01*
X233870Y172408D01*
X233860Y172552D01*
Y175171D01*
Y175180D01*
Y175219D01*
X233870Y175276D01*
X233889Y175353D01*
X233908Y175429D01*
X233937Y175505D01*
X233985Y175592D01*
X234052Y175668D01*
X234061Y175678D01*
X234090Y175697D01*
X234128Y175735D01*
X234195Y175773D01*
X234262Y175802D01*
X234348Y175840D01*
X234453Y175859D01*
X234558Y175869D01*
X236987D01*
X237044Y175859D01*
D02*
G37*
G36*
X232302Y166500D02*
X231461D01*
Y173001D01*
X231098D01*
Y173029D01*
X231623Y175869D01*
X232302D01*
Y166500D01*
D02*
G37*
G36*
X230314Y175850D02*
Y175802D01*
Y175725D01*
Y175649D01*
Y175573D01*
Y175496D01*
Y175448D01*
Y175439D01*
Y175429D01*
X228306Y166500D01*
X227484D01*
X229434Y175133D01*
X227436D01*
Y173756D01*
X226604D01*
Y175869D01*
X230314D01*
Y175850D01*
D02*
G37*
G36*
X224826Y175859D02*
X224893Y175840D01*
X224970Y175821D01*
X225056Y175783D01*
X225142Y175735D01*
X225218Y175668D01*
X225228Y175659D01*
X225247Y175630D01*
X225285Y175592D01*
X225323Y175534D01*
X225352Y175467D01*
X225390Y175381D01*
X225409Y175276D01*
X225419Y175171D01*
Y167188D01*
Y167179D01*
Y167140D01*
X225409Y167083D01*
X225390Y167016D01*
X225371Y166930D01*
X225333Y166854D01*
X225285Y166768D01*
X225218Y166691D01*
X225209Y166682D01*
X225180Y166663D01*
X225142Y166634D01*
X225084Y166596D01*
X225008Y166557D01*
X224922Y166529D01*
X224826Y166510D01*
X224721Y166500D01*
X222235D01*
X222178Y166510D01*
X222111Y166529D01*
X222025Y166548D01*
X221949Y166577D01*
X221863Y166624D01*
X221786Y166691D01*
X221777Y166701D01*
X221758Y166729D01*
X221729Y166768D01*
X221691Y166825D01*
X221652Y166902D01*
X221624Y166978D01*
X221605Y167083D01*
X221595Y167188D01*
Y175171D01*
Y175180D01*
Y175219D01*
X221605Y175276D01*
X221624Y175353D01*
X221643Y175429D01*
X221672Y175505D01*
X221719Y175592D01*
X221786Y175668D01*
X221796Y175678D01*
X221824Y175697D01*
X221863Y175735D01*
X221920Y175773D01*
X221996Y175802D01*
X222073Y175840D01*
X222178Y175859D01*
X222283Y175869D01*
X224769D01*
X224826Y175859D01*
D02*
G37*
G36*
X214530D02*
X214607Y175840D01*
X214683Y175821D01*
X214760Y175783D01*
X214846Y175735D01*
X214922Y175668D01*
X214932Y175659D01*
X214951Y175630D01*
X214989Y175592D01*
X215027Y175534D01*
X215056Y175467D01*
X215094Y175381D01*
X215113Y175276D01*
X215123Y175171D01*
Y173211D01*
Y173192D01*
Y173154D01*
X215113Y173077D01*
X215094Y172982D01*
X215066Y172857D01*
X215027Y172724D01*
X214970Y172561D01*
X214893Y172398D01*
X212408Y167236D01*
X215132D01*
Y166500D01*
X211404D01*
Y166940D01*
X214282Y172896D01*
Y175133D01*
X212370D01*
Y173020D01*
X211528D01*
Y175171D01*
Y175180D01*
Y175219D01*
X211538Y175276D01*
X211557Y175353D01*
X211576Y175429D01*
X211605Y175505D01*
X211653Y175592D01*
X211719Y175668D01*
X211729Y175678D01*
X211758Y175697D01*
X211796Y175735D01*
X211853Y175773D01*
X211930Y175802D01*
X212006Y175840D01*
X212111Y175859D01*
X212217Y175869D01*
X214473D01*
X214530Y175859D01*
D02*
G37*
G36*
X209741D02*
X209817Y175840D01*
X209894Y175821D01*
X209970Y175783D01*
X210056Y175735D01*
X210133Y175668D01*
X210142Y175659D01*
X210161Y175630D01*
X210199Y175592D01*
X210238Y175534D01*
X210266Y175467D01*
X210305Y175381D01*
X210324Y175276D01*
X210333Y175171D01*
Y173211D01*
Y173192D01*
Y173154D01*
X210324Y173077D01*
X210305Y172982D01*
X210276Y172857D01*
X210238Y172724D01*
X210180Y172561D01*
X210104Y172398D01*
X207618Y167236D01*
X210343D01*
Y166500D01*
X206614D01*
Y166940D01*
X209492Y172896D01*
Y175133D01*
X207580D01*
Y173020D01*
X206739D01*
Y175171D01*
Y175180D01*
Y175219D01*
X206748Y175276D01*
X206767Y175353D01*
X206787Y175429D01*
X206815Y175505D01*
X206863Y175592D01*
X206930Y175668D01*
X206940Y175678D01*
X206968Y175697D01*
X207006Y175735D01*
X207064Y175773D01*
X207140Y175802D01*
X207217Y175840D01*
X207322Y175859D01*
X207427Y175869D01*
X209683D01*
X209741Y175859D01*
D02*
G37*
G36*
X204750D02*
X204817Y175840D01*
X204894Y175821D01*
X204980Y175783D01*
X205066Y175735D01*
X205142Y175668D01*
X205152Y175659D01*
X205171Y175630D01*
X205209Y175592D01*
X205247Y175534D01*
X205276Y175467D01*
X205314Y175381D01*
X205333Y175276D01*
X205343Y175171D01*
Y167188D01*
Y167179D01*
Y167140D01*
X205333Y167083D01*
X205314Y167016D01*
X205295Y166930D01*
X205257Y166854D01*
X205209Y166768D01*
X205142Y166691D01*
X205133Y166682D01*
X205104Y166663D01*
X205066Y166634D01*
X205008Y166596D01*
X204932Y166557D01*
X204846Y166529D01*
X204750Y166510D01*
X204645Y166500D01*
X202160D01*
X202102Y166510D01*
X202035Y166529D01*
X201949Y166548D01*
X201873Y166577D01*
X201787Y166624D01*
X201710Y166691D01*
X201701Y166701D01*
X201681Y166729D01*
X201653Y166768D01*
X201615Y166825D01*
X201576Y166902D01*
X201548Y166978D01*
X201529Y167083D01*
X201519Y167188D01*
Y175171D01*
Y175180D01*
Y175219D01*
X201529Y175276D01*
X201548Y175353D01*
X201567Y175429D01*
X201595Y175505D01*
X201643Y175592D01*
X201710Y175668D01*
X201720Y175678D01*
X201748Y175697D01*
X201787Y175735D01*
X201844Y175773D01*
X201921Y175802D01*
X201997Y175840D01*
X202102Y175859D01*
X202207Y175869D01*
X204693D01*
X204750Y175859D01*
D02*
G37*
G36*
X199626D02*
X199703Y175840D01*
X199779Y175821D01*
X199856Y175783D01*
X199942Y175735D01*
X200018Y175668D01*
X200028Y175659D01*
X200047Y175630D01*
X200085Y175592D01*
X200123Y175534D01*
X200152Y175467D01*
X200190Y175381D01*
X200209Y175276D01*
X200219Y175171D01*
Y173211D01*
Y173192D01*
Y173154D01*
X200209Y173077D01*
X200190Y172982D01*
X200162Y172857D01*
X200123Y172724D01*
X200066Y172561D01*
X199989Y172398D01*
X197504Y167236D01*
X200228D01*
Y166500D01*
X196500D01*
Y166940D01*
X199378Y172896D01*
Y175133D01*
X197466D01*
Y173020D01*
X196624D01*
Y175171D01*
Y175180D01*
Y175219D01*
X196634Y175276D01*
X196653Y175353D01*
X196672Y175429D01*
X196701Y175505D01*
X196749Y175592D01*
X196816Y175668D01*
X196825Y175678D01*
X196854Y175697D01*
X196892Y175735D01*
X196949Y175773D01*
X197026Y175802D01*
X197102Y175840D01*
X197207Y175859D01*
X197313Y175869D01*
X199569D01*
X199626Y175859D01*
D02*
G37*
G36*
X171627Y165000D02*
X122000D01*
Y176546D01*
X171627D01*
Y165000D01*
D02*
G37*
G36*
X178261Y89707D02*
X178308Y89693D01*
X178363Y89680D01*
X178425Y89652D01*
X178486Y89618D01*
X178541Y89570D01*
X178548Y89564D01*
X178561Y89543D01*
X178589Y89516D01*
X178616Y89475D01*
X178636Y89427D01*
X178664Y89366D01*
X178677Y89290D01*
X178684Y89215D01*
Y87678D01*
X178083D01*
Y89188D01*
X176594D01*
Y83546D01*
X178083D01*
Y85192D01*
X178684D01*
Y83512D01*
Y83505D01*
Y83478D01*
X178677Y83437D01*
X178664Y83389D01*
X178650Y83328D01*
X178623Y83273D01*
X178589Y83212D01*
X178541Y83157D01*
X178534Y83150D01*
X178513Y83137D01*
X178486Y83116D01*
X178445Y83089D01*
X178391Y83061D01*
X178329Y83041D01*
X178261Y83027D01*
X178186Y83021D01*
X176458D01*
X176417Y83027D01*
X176369Y83041D01*
X176307Y83055D01*
X176253Y83075D01*
X176191Y83109D01*
X176137Y83157D01*
X176130Y83164D01*
X176116Y83184D01*
X176096Y83212D01*
X176068Y83253D01*
X176041Y83307D01*
X176021Y83362D01*
X176007Y83437D01*
X176000Y83512D01*
Y89215D01*
Y89222D01*
Y89249D01*
X176007Y89290D01*
X176021Y89345D01*
X176034Y89400D01*
X176055Y89454D01*
X176089Y89516D01*
X176137Y89570D01*
X176143Y89577D01*
X176164Y89591D01*
X176191Y89618D01*
X176232Y89646D01*
X176287Y89666D01*
X176341Y89693D01*
X176417Y89707D01*
X176492Y89714D01*
X178220D01*
X178261Y89707D01*
D02*
G37*
G36*
X182366Y89673D02*
X180849Y86483D01*
X182516Y83021D01*
X181860D01*
X180317Y86231D01*
Y83021D01*
X179722D01*
Y89714D01*
X180317D01*
Y86702D01*
X181717Y89714D01*
X182366D01*
Y89673D01*
D02*
G37*
G36*
X184551Y83000D02*
X183991D01*
X182830Y89714D01*
X183417D01*
X184251Y84373D01*
Y84366D01*
Y84352D01*
Y84318D01*
X184257Y84270D01*
Y84236D01*
Y84188D01*
X184264Y84141D01*
Y84086D01*
X184271Y84018D01*
Y83970D01*
X184278Y84004D01*
Y84052D01*
X184285Y84113D01*
X184292Y84182D01*
X184299Y84270D01*
X184305Y84373D01*
X185138Y89714D01*
X185712D01*
X184551Y83000D01*
D02*
G37*
G36*
X182229Y99680D02*
Y99646D01*
Y99591D01*
Y99536D01*
Y99482D01*
Y99427D01*
Y99393D01*
Y99386D01*
Y99379D01*
X180795Y93000D01*
X180207D01*
X181601Y99168D01*
X180173D01*
Y98184D01*
X179579D01*
Y99693D01*
X182229D01*
Y99680D01*
D02*
G37*
G36*
X177619Y99687D02*
X177666D01*
X177714Y99673D01*
X177837Y99652D01*
X177981Y99611D01*
X178124Y99550D01*
X178199Y99509D01*
X178274Y99468D01*
X178343Y99413D01*
X178411Y99352D01*
X178418Y99345D01*
X178425Y99338D01*
X178445Y99318D01*
X178466Y99290D01*
X178493Y99256D01*
X178520Y99215D01*
X178589Y99113D01*
X178650Y98990D01*
X178705Y98840D01*
X178746Y98669D01*
X178753Y98573D01*
X178759Y98478D01*
Y94209D01*
Y94202D01*
Y94188D01*
Y94161D01*
X178753Y94120D01*
X178746Y94072D01*
X178739Y94024D01*
X178718Y93902D01*
X178671Y93765D01*
X178609Y93615D01*
X178568Y93540D01*
X178520Y93471D01*
X178466Y93403D01*
X178404Y93335D01*
X178397Y93328D01*
X178391Y93321D01*
X178370Y93307D01*
X178343Y93280D01*
X178308Y93260D01*
X178268Y93232D01*
X178165Y93171D01*
X178035Y93109D01*
X177892Y93055D01*
X177721Y93014D01*
X177626Y93007D01*
X177530Y93000D01*
X176000D01*
Y99693D01*
X177585D01*
X177619Y99687D01*
D02*
G37*
G36*
X182325Y109168D02*
X180460D01*
X180392Y107201D01*
X181915D01*
X181956Y107194D01*
X182010Y107187D01*
X182065Y107166D01*
X182120Y107146D01*
X182181Y107112D01*
X182236Y107064D01*
X182243Y107057D01*
X182256Y107036D01*
X182284Y107009D01*
X182311Y106968D01*
X182331Y106920D01*
X182359Y106866D01*
X182372Y106798D01*
X182379Y106722D01*
Y103492D01*
Y103485D01*
Y103458D01*
X182372Y103417D01*
X182359Y103369D01*
X182345Y103307D01*
X182318Y103253D01*
X182284Y103191D01*
X182236Y103137D01*
X182229Y103130D01*
X182209Y103116D01*
X182181Y103096D01*
X182140Y103068D01*
X182092Y103041D01*
X182031Y103021D01*
X181956Y103007D01*
X181881Y103000D01*
X180248D01*
X180207Y103007D01*
X180159Y103021D01*
X180098Y103034D01*
X180043Y103055D01*
X179982Y103089D01*
X179927Y103137D01*
X179920Y103143D01*
X179907Y103164D01*
X179886Y103191D01*
X179859Y103232D01*
X179832Y103287D01*
X179811Y103341D01*
X179797Y103417D01*
X179791Y103492D01*
Y105165D01*
X180385D01*
Y103526D01*
X181785D01*
Y106675D01*
X179811D01*
X179886Y109693D01*
X182325D01*
Y109168D01*
D02*
G37*
G36*
X177619Y109687D02*
X177666D01*
X177714Y109673D01*
X177837Y109652D01*
X177981Y109611D01*
X178124Y109550D01*
X178199Y109509D01*
X178274Y109468D01*
X178343Y109413D01*
X178411Y109352D01*
X178418Y109345D01*
X178425Y109338D01*
X178445Y109318D01*
X178466Y109290D01*
X178493Y109256D01*
X178520Y109215D01*
X178589Y109113D01*
X178650Y108990D01*
X178705Y108840D01*
X178746Y108669D01*
X178753Y108573D01*
X178759Y108478D01*
Y104209D01*
Y104202D01*
Y104188D01*
Y104161D01*
X178753Y104120D01*
X178746Y104072D01*
X178739Y104025D01*
X178718Y103902D01*
X178671Y103765D01*
X178609Y103615D01*
X178568Y103540D01*
X178520Y103471D01*
X178466Y103403D01*
X178404Y103335D01*
X178397Y103328D01*
X178391Y103321D01*
X178370Y103307D01*
X178343Y103280D01*
X178308Y103260D01*
X178268Y103232D01*
X178165Y103171D01*
X178035Y103109D01*
X177892Y103055D01*
X177721Y103014D01*
X177626Y103007D01*
X177530Y103000D01*
X176000D01*
Y109693D01*
X177585D01*
X177619Y109687D01*
D02*
G37*
G36*
X182051Y119687D02*
X182099Y119673D01*
X182154Y119659D01*
X182215Y119632D01*
X182270Y119598D01*
X182325Y119550D01*
X182331Y119543D01*
X182345Y119523D01*
X182372Y119495D01*
X182400Y119454D01*
X182420Y119406D01*
X182448Y119345D01*
X182461Y119270D01*
X182468Y119195D01*
Y117583D01*
Y117576D01*
Y117569D01*
X182461Y117528D01*
X182454Y117474D01*
X182434Y117399D01*
X182406Y117323D01*
X182359Y117235D01*
X182297Y117159D01*
X182215Y117084D01*
X181416Y116524D01*
X182222Y115964D01*
X182236Y115957D01*
X182263Y115930D01*
X182304Y115889D01*
X182352Y115834D01*
X182400Y115759D01*
X182441Y115671D01*
X182468Y115568D01*
X182482Y115452D01*
Y113492D01*
Y113485D01*
Y113458D01*
X182475Y113417D01*
X182461Y113369D01*
X182448Y113307D01*
X182420Y113253D01*
X182386Y113191D01*
X182338Y113137D01*
X182331Y113130D01*
X182311Y113116D01*
X182284Y113096D01*
X182243Y113068D01*
X182195Y113041D01*
X182133Y113021D01*
X182058Y113007D01*
X181983Y113000D01*
X180262D01*
X180221Y113007D01*
X180173Y113021D01*
X180112Y113034D01*
X180057Y113055D01*
X179996Y113089D01*
X179941Y113137D01*
X179934Y113143D01*
X179920Y113164D01*
X179900Y113191D01*
X179873Y113232D01*
X179845Y113287D01*
X179825Y113341D01*
X179811Y113417D01*
X179804Y113492D01*
Y115172D01*
X180398D01*
Y113526D01*
X181881D01*
Y115568D01*
X180699Y116456D01*
Y116586D01*
X181867Y117460D01*
Y119167D01*
X180405D01*
Y117665D01*
X179811D01*
Y119195D01*
Y119202D01*
Y119229D01*
X179818Y119270D01*
X179832Y119325D01*
X179845Y119379D01*
X179866Y119434D01*
X179900Y119495D01*
X179948Y119550D01*
X179955Y119557D01*
X179975Y119571D01*
X180002Y119598D01*
X180043Y119625D01*
X180098Y119646D01*
X180159Y119673D01*
X180228Y119687D01*
X180303Y119693D01*
X182010D01*
X182051Y119687D01*
D02*
G37*
G36*
X177619D02*
X177666D01*
X177714Y119673D01*
X177837Y119652D01*
X177981Y119611D01*
X178124Y119550D01*
X178199Y119509D01*
X178274Y119468D01*
X178343Y119413D01*
X178411Y119352D01*
X178418Y119345D01*
X178425Y119338D01*
X178445Y119318D01*
X178466Y119290D01*
X178493Y119256D01*
X178520Y119215D01*
X178589Y119113D01*
X178650Y118990D01*
X178705Y118840D01*
X178746Y118669D01*
X178753Y118573D01*
X178759Y118478D01*
Y114209D01*
Y114202D01*
Y114188D01*
Y114161D01*
X178753Y114120D01*
X178746Y114072D01*
X178739Y114024D01*
X178718Y113902D01*
X178671Y113765D01*
X178609Y113615D01*
X178568Y113540D01*
X178520Y113471D01*
X178466Y113403D01*
X178404Y113335D01*
X178397Y113328D01*
X178391Y113321D01*
X178370Y113307D01*
X178343Y113280D01*
X178308Y113259D01*
X178268Y113232D01*
X178165Y113171D01*
X178035Y113109D01*
X177892Y113055D01*
X177721Y113014D01*
X177626Y113007D01*
X177530Y113000D01*
X176000D01*
Y119693D01*
X177585D01*
X177619Y119687D01*
D02*
G37*
G36*
X180474Y123000D02*
X179873D01*
Y127644D01*
X179613D01*
Y127665D01*
X179989Y129693D01*
X180474D01*
Y123000D01*
D02*
G37*
G36*
X177619Y129687D02*
X177666D01*
X177714Y129673D01*
X177837Y129652D01*
X177981Y129611D01*
X178124Y129550D01*
X178199Y129509D01*
X178274Y129468D01*
X178343Y129413D01*
X178411Y129352D01*
X178418Y129345D01*
X178425Y129338D01*
X178445Y129318D01*
X178466Y129290D01*
X178493Y129256D01*
X178520Y129215D01*
X178589Y129113D01*
X178650Y128990D01*
X178705Y128840D01*
X178746Y128669D01*
X178753Y128573D01*
X178759Y128478D01*
Y124209D01*
Y124202D01*
Y124188D01*
Y124161D01*
X178753Y124120D01*
X178746Y124072D01*
X178739Y124024D01*
X178718Y123902D01*
X178671Y123765D01*
X178609Y123615D01*
X178568Y123540D01*
X178520Y123471D01*
X178466Y123403D01*
X178404Y123335D01*
X178397Y123328D01*
X178391Y123321D01*
X178370Y123307D01*
X178343Y123280D01*
X178308Y123259D01*
X178268Y123232D01*
X178165Y123171D01*
X178035Y123109D01*
X177892Y123055D01*
X177721Y123014D01*
X177626Y123007D01*
X177530Y123000D01*
X176000D01*
Y129693D01*
X177585D01*
X177619Y129687D01*
D02*
G37*
G36*
X181901Y139687D02*
X181956Y139673D01*
X182010Y139659D01*
X182065Y139632D01*
X182126Y139598D01*
X182181Y139550D01*
X182188Y139543D01*
X182202Y139523D01*
X182229Y139495D01*
X182256Y139454D01*
X182277Y139407D01*
X182304Y139345D01*
X182318Y139270D01*
X182325Y139195D01*
Y137665D01*
X181730D01*
Y139167D01*
X180282D01*
Y137754D01*
X182140Y135520D01*
X182147Y135513D01*
X182167Y135479D01*
X182202Y135432D01*
X182236Y135377D01*
X182263Y135302D01*
X182297Y135213D01*
X182318Y135124D01*
X182325Y135022D01*
Y133492D01*
Y133485D01*
Y133458D01*
X182318Y133417D01*
X182304Y133369D01*
X182290Y133307D01*
X182263Y133253D01*
X182229Y133191D01*
X182181Y133137D01*
X182174Y133130D01*
X182154Y133116D01*
X182126Y133096D01*
X182086Y133068D01*
X182038Y133041D01*
X181976Y133020D01*
X181901Y133007D01*
X181826Y133000D01*
X180146D01*
X180105Y133007D01*
X180057Y133020D01*
X179996Y133034D01*
X179941Y133055D01*
X179879Y133089D01*
X179825Y133137D01*
X179818Y133143D01*
X179804Y133164D01*
X179784Y133191D01*
X179756Y133232D01*
X179729Y133287D01*
X179709Y133342D01*
X179695Y133417D01*
X179688Y133492D01*
Y135172D01*
X180282D01*
Y133526D01*
X181730D01*
Y135117D01*
X179879Y137351D01*
X179873Y137364D01*
X179852Y137392D01*
X179818Y137440D01*
X179784Y137501D01*
X179750Y137576D01*
X179716Y137665D01*
X179695Y137760D01*
X179688Y137863D01*
Y139195D01*
Y139202D01*
Y139229D01*
X179695Y139270D01*
X179709Y139325D01*
X179722Y139379D01*
X179743Y139434D01*
X179777Y139495D01*
X179825Y139550D01*
X179832Y139557D01*
X179852Y139570D01*
X179879Y139598D01*
X179920Y139625D01*
X179975Y139646D01*
X180030Y139673D01*
X180105Y139687D01*
X180180Y139693D01*
X181860D01*
X181901Y139687D01*
D02*
G37*
G36*
X178930D02*
Y139673D01*
Y139659D01*
Y139652D01*
X177817Y136456D01*
X177824Y136449D01*
X177830Y136415D01*
X177844Y136374D01*
X177871Y136306D01*
X177892Y136231D01*
X177926Y136142D01*
X177960Y136032D01*
X178001Y135916D01*
X178049Y135793D01*
X178090Y135657D01*
X178145Y135513D01*
X178192Y135363D01*
X178302Y135056D01*
X178411Y134735D01*
X178520Y134414D01*
X178630Y134100D01*
X178677Y133949D01*
X178725Y133806D01*
X178773Y133669D01*
X178814Y133546D01*
X178855Y133430D01*
X178889Y133321D01*
X178923Y133232D01*
X178951Y133150D01*
X178971Y133089D01*
X178985Y133041D01*
X178998Y133014D01*
Y133000D01*
X178384D01*
X177489Y135746D01*
X176594Y133000D01*
X176000D01*
Y133007D01*
Y133014D01*
Y133027D01*
Y133034D01*
X177195Y136422D01*
Y136429D01*
X177182Y136456D01*
X177168Y136504D01*
X177147Y136558D01*
X177120Y136634D01*
X177093Y136722D01*
X177059Y136818D01*
X177018Y136927D01*
X176977Y137050D01*
X176936Y137180D01*
X176888Y137310D01*
X176840Y137453D01*
X176738Y137747D01*
X176628Y138047D01*
X176526Y138355D01*
X176424Y138648D01*
X176376Y138792D01*
X176328Y138928D01*
X176280Y139051D01*
X176239Y139174D01*
X176205Y139284D01*
X176171Y139386D01*
X176143Y139475D01*
X176116Y139550D01*
X176096Y139605D01*
X176082Y139652D01*
X176068Y139680D01*
Y139693D01*
X176690D01*
X177496Y137153D01*
X178336Y139693D01*
X178930D01*
Y139687D01*
D02*
G37*
G36*
X186969Y133526D02*
X188513D01*
Y133000D01*
X186375D01*
Y139693D01*
X186969D01*
Y133526D01*
D02*
G37*
G36*
X185678Y139167D02*
X184640D01*
Y133000D01*
X184046D01*
Y139167D01*
X183001D01*
Y139693D01*
X185678D01*
Y139167D01*
D02*
G37*
G36*
X181969Y149687D02*
X182017Y149673D01*
X182072Y149659D01*
X182133Y149632D01*
X182195Y149598D01*
X182249Y149550D01*
X182256Y149543D01*
X182270Y149523D01*
X182297Y149495D01*
X182325Y149454D01*
X182345Y149407D01*
X182372Y149345D01*
X182386Y149270D01*
X182393Y149195D01*
Y147658D01*
X181792D01*
Y149168D01*
X180303D01*
Y143526D01*
X181792D01*
Y145172D01*
X182393D01*
Y143492D01*
Y143485D01*
Y143458D01*
X182386Y143417D01*
X182372Y143369D01*
X182359Y143307D01*
X182331Y143253D01*
X182297Y143191D01*
X182249Y143137D01*
X182243Y143130D01*
X182222Y143116D01*
X182195Y143096D01*
X182154Y143068D01*
X182099Y143041D01*
X182038Y143020D01*
X181969Y143007D01*
X181894Y143000D01*
X180166D01*
X180125Y143007D01*
X180078Y143020D01*
X180016Y143034D01*
X179961Y143055D01*
X179900Y143089D01*
X179845Y143137D01*
X179839Y143143D01*
X179825Y143164D01*
X179804Y143191D01*
X179777Y143232D01*
X179750Y143287D01*
X179729Y143342D01*
X179716Y143417D01*
X179709Y143492D01*
Y149195D01*
Y149202D01*
Y149229D01*
X179716Y149270D01*
X179729Y149325D01*
X179743Y149379D01*
X179763Y149434D01*
X179797Y149495D01*
X179845Y149550D01*
X179852Y149557D01*
X179873Y149571D01*
X179900Y149598D01*
X179941Y149625D01*
X179996Y149646D01*
X180050Y149673D01*
X180125Y149687D01*
X180201Y149693D01*
X181928D01*
X181969Y149687D01*
D02*
G37*
G36*
X178930D02*
Y149673D01*
Y149659D01*
Y149652D01*
X177817Y146456D01*
X177824Y146449D01*
X177830Y146415D01*
X177844Y146374D01*
X177871Y146306D01*
X177892Y146231D01*
X177926Y146142D01*
X177960Y146033D01*
X178001Y145916D01*
X178049Y145793D01*
X178090Y145657D01*
X178145Y145513D01*
X178192Y145363D01*
X178302Y145056D01*
X178411Y144735D01*
X178520Y144414D01*
X178630Y144100D01*
X178677Y143949D01*
X178725Y143806D01*
X178773Y143669D01*
X178814Y143546D01*
X178855Y143430D01*
X178889Y143321D01*
X178923Y143232D01*
X178951Y143150D01*
X178971Y143089D01*
X178985Y143041D01*
X178998Y143014D01*
Y143000D01*
X178384D01*
X177489Y145746D01*
X176594Y143000D01*
X176000D01*
Y143007D01*
Y143014D01*
Y143027D01*
Y143034D01*
X177195Y146422D01*
Y146429D01*
X177182Y146456D01*
X177168Y146504D01*
X177147Y146558D01*
X177120Y146634D01*
X177093Y146722D01*
X177059Y146818D01*
X177018Y146927D01*
X176977Y147050D01*
X176936Y147180D01*
X176888Y147310D01*
X176840Y147453D01*
X176738Y147747D01*
X176628Y148047D01*
X176526Y148355D01*
X176424Y148648D01*
X176376Y148792D01*
X176328Y148928D01*
X176280Y149051D01*
X176239Y149174D01*
X176205Y149284D01*
X176171Y149386D01*
X176143Y149475D01*
X176116Y149550D01*
X176096Y149605D01*
X176082Y149652D01*
X176068Y149680D01*
Y149693D01*
X176690D01*
X177496Y147153D01*
X178336Y149693D01*
X178930D01*
Y149687D01*
D02*
G37*
G36*
X184025Y143526D02*
X185569D01*
Y143000D01*
X183431D01*
Y149693D01*
X184025D01*
Y143526D01*
D02*
G37*
G36*
X145090Y90207D02*
X145144Y90193D01*
X145199Y90180D01*
X145254Y90152D01*
X145315Y90118D01*
X145370Y90070D01*
X145377Y90064D01*
X145390Y90043D01*
X145417Y90016D01*
X145445Y89975D01*
X145465Y89927D01*
X145493Y89866D01*
X145506Y89790D01*
X145513Y89715D01*
Y88185D01*
X144919D01*
Y89688D01*
X143471D01*
Y88274D01*
X145329Y86041D01*
X145335Y86034D01*
X145356Y86000D01*
X145390Y85952D01*
X145424Y85897D01*
X145452Y85822D01*
X145486Y85733D01*
X145506Y85645D01*
X145513Y85542D01*
Y84012D01*
Y84005D01*
Y83978D01*
X145506Y83937D01*
X145493Y83889D01*
X145479Y83828D01*
X145452Y83773D01*
X145417Y83712D01*
X145370Y83657D01*
X145363Y83650D01*
X145342Y83637D01*
X145315Y83616D01*
X145274Y83589D01*
X145226Y83561D01*
X145165Y83541D01*
X145090Y83527D01*
X145015Y83521D01*
X143334D01*
X143293Y83527D01*
X143246Y83541D01*
X143184Y83555D01*
X143129Y83575D01*
X143068Y83609D01*
X143013Y83657D01*
X143007Y83664D01*
X142993Y83684D01*
X142972Y83712D01*
X142945Y83753D01*
X142918Y83807D01*
X142897Y83862D01*
X142884Y83937D01*
X142877Y84012D01*
Y85692D01*
X143471D01*
Y84046D01*
X144919D01*
Y85638D01*
X143068Y87871D01*
X143061Y87885D01*
X143041Y87912D01*
X143007Y87960D01*
X142972Y88021D01*
X142938Y88097D01*
X142904Y88185D01*
X142884Y88281D01*
X142877Y88384D01*
Y89715D01*
Y89722D01*
Y89749D01*
X142884Y89790D01*
X142897Y89845D01*
X142911Y89900D01*
X142931Y89954D01*
X142965Y90016D01*
X143013Y90070D01*
X143020Y90077D01*
X143041Y90091D01*
X143068Y90118D01*
X143109Y90146D01*
X143164Y90166D01*
X143218Y90193D01*
X143293Y90207D01*
X143368Y90214D01*
X145049D01*
X145090Y90207D01*
D02*
G37*
G36*
X151605Y83500D02*
X151045D01*
X149884Y90214D01*
X150472D01*
X151305Y84873D01*
Y84866D01*
Y84852D01*
Y84818D01*
X151312Y84770D01*
Y84736D01*
Y84688D01*
X151319Y84641D01*
Y84586D01*
X151326Y84518D01*
Y84470D01*
X151332Y84504D01*
Y84552D01*
X151339Y84613D01*
X151346Y84682D01*
X151353Y84770D01*
X151360Y84873D01*
X152193Y90214D01*
X152767D01*
X151605Y83500D01*
D02*
G37*
G36*
X148785Y90207D02*
X148839Y90193D01*
X148894Y90180D01*
X148949Y90152D01*
X149010Y90118D01*
X149065Y90070D01*
X149072Y90064D01*
X149085Y90043D01*
X149112Y90016D01*
X149140Y89975D01*
X149160Y89927D01*
X149188Y89866D01*
X149201Y89790D01*
X149208Y89715D01*
Y86669D01*
Y86662D01*
Y86635D01*
X149201Y86594D01*
X149188Y86546D01*
X149174Y86485D01*
X149147Y86430D01*
X149112Y86369D01*
X149065Y86314D01*
X149058Y86307D01*
X149037Y86294D01*
X149010Y86273D01*
X148969Y86246D01*
X148921Y86218D01*
X148860Y86198D01*
X148785Y86184D01*
X148710Y86177D01*
X147152D01*
Y83521D01*
X146558D01*
Y90214D01*
X148744D01*
X148785Y90207D01*
D02*
G37*
G36*
X151634Y100187D02*
X151688Y100173D01*
X151743Y100159D01*
X151797Y100132D01*
X151859Y100098D01*
X151914Y100050D01*
X151920Y100043D01*
X151934Y100023D01*
X151961Y99995D01*
X151989Y99954D01*
X152009Y99906D01*
X152036Y99845D01*
X152050Y99770D01*
X152057Y99695D01*
Y98240D01*
X151463D01*
Y99668D01*
X150022D01*
Y97188D01*
X151613D01*
X151654Y97181D01*
X151709Y97168D01*
X151763Y97154D01*
X151818Y97127D01*
X151879Y97093D01*
X151934Y97045D01*
X151941Y97038D01*
X151954Y97017D01*
X151982Y96990D01*
X152009Y96949D01*
X152030Y96901D01*
X152057Y96840D01*
X152071Y96765D01*
X152077Y96690D01*
Y93992D01*
Y93985D01*
Y93958D01*
X152071Y93917D01*
X152057Y93869D01*
X152043Y93807D01*
X152016Y93753D01*
X151982Y93691D01*
X151934Y93637D01*
X151927Y93630D01*
X151907Y93616D01*
X151879Y93596D01*
X151838Y93568D01*
X151791Y93541D01*
X151729Y93520D01*
X151654Y93507D01*
X151579Y93500D01*
X149885D01*
X149844Y93507D01*
X149796Y93520D01*
X149735Y93534D01*
X149680Y93555D01*
X149619Y93589D01*
X149564Y93637D01*
X149557Y93643D01*
X149543Y93664D01*
X149523Y93691D01*
X149496Y93732D01*
X149468Y93787D01*
X149448Y93841D01*
X149434Y93917D01*
X149427Y93992D01*
Y99695D01*
Y99702D01*
Y99729D01*
X149434Y99770D01*
X149448Y99825D01*
X149462Y99879D01*
X149482Y99934D01*
X149516Y99995D01*
X149564Y100050D01*
X149571Y100057D01*
X149591Y100071D01*
X149619Y100098D01*
X149660Y100125D01*
X149714Y100146D01*
X149769Y100173D01*
X149844Y100187D01*
X149919Y100193D01*
X151593D01*
X151634Y100187D01*
D02*
G37*
G36*
X147242D02*
X147290D01*
X147337Y100173D01*
X147460Y100152D01*
X147604Y100111D01*
X147747Y100050D01*
X147822Y100009D01*
X147898Y99968D01*
X147966Y99913D01*
X148034Y99852D01*
X148041Y99845D01*
X148048Y99838D01*
X148068Y99818D01*
X148089Y99790D01*
X148116Y99756D01*
X148143Y99715D01*
X148212Y99613D01*
X148273Y99490D01*
X148328Y99340D01*
X148369Y99169D01*
X148376Y99073D01*
X148382Y98978D01*
Y94709D01*
Y94702D01*
Y94688D01*
Y94661D01*
X148376Y94620D01*
X148369Y94572D01*
X148362Y94525D01*
X148342Y94402D01*
X148294Y94265D01*
X148232Y94115D01*
X148191Y94040D01*
X148143Y93971D01*
X148089Y93903D01*
X148027Y93835D01*
X148021Y93828D01*
X148014Y93821D01*
X147993Y93807D01*
X147966Y93780D01*
X147932Y93760D01*
X147891Y93732D01*
X147788Y93671D01*
X147659Y93609D01*
X147515Y93555D01*
X147344Y93514D01*
X147249Y93507D01*
X147153Y93500D01*
X145623D01*
Y100193D01*
X147208D01*
X147242Y100187D01*
D02*
G37*
G36*
X151285Y110187D02*
Y110180D01*
Y110173D01*
Y110166D01*
X149742Y105747D01*
X150998D01*
Y108178D01*
X151558D01*
Y105747D01*
X152071D01*
Y105242D01*
X151558D01*
Y103500D01*
X150998D01*
Y105242D01*
X149106D01*
Y105542D01*
X150725Y110193D01*
X151285D01*
Y110187D01*
D02*
G37*
G36*
X147269D02*
X147317D01*
X147365Y110173D01*
X147488Y110152D01*
X147631Y110111D01*
X147775Y110050D01*
X147850Y110009D01*
X147925Y109968D01*
X147993Y109913D01*
X148061Y109852D01*
X148068Y109845D01*
X148075Y109838D01*
X148096Y109818D01*
X148116Y109790D01*
X148143Y109756D01*
X148171Y109715D01*
X148239Y109613D01*
X148301Y109490D01*
X148355Y109340D01*
X148396Y109169D01*
X148403Y109073D01*
X148410Y108978D01*
Y104709D01*
Y104702D01*
Y104688D01*
Y104661D01*
X148403Y104620D01*
X148396Y104572D01*
X148389Y104525D01*
X148369Y104402D01*
X148321Y104265D01*
X148259Y104115D01*
X148219Y104040D01*
X148171Y103971D01*
X148116Y103903D01*
X148055Y103835D01*
X148048Y103828D01*
X148041Y103821D01*
X148020Y103807D01*
X147993Y103780D01*
X147959Y103760D01*
X147918Y103732D01*
X147816Y103671D01*
X147686Y103609D01*
X147542Y103555D01*
X147372Y103514D01*
X147276Y103507D01*
X147180Y103500D01*
X145650D01*
Y110193D01*
X147235D01*
X147269Y110187D01*
D02*
G37*
G36*
X151617Y120187D02*
X151672Y120173D01*
X151726Y120159D01*
X151781Y120132D01*
X151842Y120098D01*
X151897Y120050D01*
X151904Y120043D01*
X151918Y120023D01*
X151945Y119995D01*
X151972Y119954D01*
X151993Y119906D01*
X152020Y119845D01*
X152034Y119770D01*
X152041Y119695D01*
Y118295D01*
Y118281D01*
Y118254D01*
X152034Y118199D01*
X152020Y118131D01*
X151999Y118042D01*
X151972Y117946D01*
X151931Y117830D01*
X151877Y117714D01*
X150101Y114026D01*
X152047D01*
Y113500D01*
X149384D01*
Y113814D01*
X151439Y118069D01*
Y119667D01*
X150074D01*
Y118158D01*
X149472D01*
Y119695D01*
Y119702D01*
Y119729D01*
X149479Y119770D01*
X149493Y119825D01*
X149507Y119879D01*
X149527Y119934D01*
X149561Y119995D01*
X149609Y120050D01*
X149616Y120057D01*
X149636Y120071D01*
X149664Y120098D01*
X149705Y120125D01*
X149759Y120146D01*
X149814Y120173D01*
X149889Y120187D01*
X149964Y120193D01*
X151576D01*
X151617Y120187D01*
D02*
G37*
G36*
X147362D02*
X147410D01*
X147458Y120173D01*
X147581Y120152D01*
X147724Y120111D01*
X147867Y120050D01*
X147942Y120009D01*
X148018Y119968D01*
X148086Y119913D01*
X148154Y119852D01*
X148161Y119845D01*
X148168Y119838D01*
X148188Y119818D01*
X148209Y119790D01*
X148236Y119756D01*
X148264Y119715D01*
X148332Y119613D01*
X148393Y119490D01*
X148448Y119340D01*
X148489Y119169D01*
X148496Y119073D01*
X148503Y118978D01*
Y114709D01*
Y114702D01*
Y114688D01*
Y114661D01*
X148496Y114620D01*
X148489Y114572D01*
X148482Y114524D01*
X148462Y114402D01*
X148414Y114265D01*
X148352Y114115D01*
X148311Y114040D01*
X148264Y113971D01*
X148209Y113903D01*
X148147Y113835D01*
X148141Y113828D01*
X148134Y113821D01*
X148113Y113807D01*
X148086Y113780D01*
X148052Y113760D01*
X148011Y113732D01*
X147908Y113671D01*
X147779Y113609D01*
X147635Y113555D01*
X147464Y113514D01*
X147369Y113507D01*
X147273Y113500D01*
X145743D01*
Y120193D01*
X147328D01*
X147362Y120187D01*
D02*
G37*
G36*
X151671Y130187D02*
X151718Y130173D01*
X151773Y130159D01*
X151834Y130132D01*
X151896Y130098D01*
X151951Y130050D01*
X151957Y130043D01*
X151971Y130023D01*
X151998Y129995D01*
X152026Y129954D01*
X152046Y129906D01*
X152073Y129845D01*
X152087Y129770D01*
X152094Y129695D01*
Y123992D01*
Y123985D01*
Y123958D01*
X152087Y123917D01*
X152073Y123869D01*
X152060Y123807D01*
X152032Y123753D01*
X151998Y123691D01*
X151951Y123637D01*
X151944Y123630D01*
X151923Y123616D01*
X151896Y123596D01*
X151855Y123568D01*
X151800Y123541D01*
X151739Y123521D01*
X151671Y123507D01*
X151595Y123500D01*
X149820D01*
X149778Y123507D01*
X149731Y123521D01*
X149669Y123534D01*
X149615Y123555D01*
X149553Y123589D01*
X149498Y123637D01*
X149492Y123643D01*
X149478Y123664D01*
X149458Y123691D01*
X149430Y123732D01*
X149403Y123787D01*
X149382Y123842D01*
X149369Y123917D01*
X149362Y123992D01*
Y129695D01*
Y129702D01*
Y129729D01*
X149369Y129770D01*
X149382Y129825D01*
X149396Y129879D01*
X149417Y129934D01*
X149451Y129995D01*
X149498Y130050D01*
X149505Y130057D01*
X149526Y130070D01*
X149553Y130098D01*
X149594Y130125D01*
X149649Y130146D01*
X149703Y130173D01*
X149778Y130187D01*
X149854Y130193D01*
X151629D01*
X151671Y130187D01*
D02*
G37*
G36*
X147176D02*
X147224D01*
X147272Y130173D01*
X147395Y130152D01*
X147538Y130111D01*
X147682Y130050D01*
X147757Y130009D01*
X147832Y129968D01*
X147900Y129913D01*
X147969Y129852D01*
X147975Y129845D01*
X147982Y129838D01*
X148003Y129818D01*
X148023Y129790D01*
X148050Y129756D01*
X148078Y129715D01*
X148146Y129613D01*
X148208Y129490D01*
X148262Y129340D01*
X148303Y129169D01*
X148310Y129073D01*
X148317Y128978D01*
Y124709D01*
Y124702D01*
Y124688D01*
Y124661D01*
X148310Y124620D01*
X148303Y124572D01*
X148296Y124524D01*
X148276Y124402D01*
X148228Y124265D01*
X148167Y124115D01*
X148126Y124040D01*
X148078Y123971D01*
X148023Y123903D01*
X147962Y123835D01*
X147955Y123828D01*
X147948Y123821D01*
X147928Y123807D01*
X147900Y123780D01*
X147866Y123759D01*
X147825Y123732D01*
X147723Y123671D01*
X147593Y123609D01*
X147450Y123555D01*
X147279Y123514D01*
X147183Y123507D01*
X147088Y123500D01*
X145558D01*
Y130193D01*
X147142D01*
X147176Y130187D01*
D02*
G37*
G36*
X146637Y140187D02*
Y140173D01*
Y140159D01*
Y140152D01*
X145523Y136956D01*
X145530Y136949D01*
X145537Y136915D01*
X145551Y136874D01*
X145578Y136806D01*
X145599Y136731D01*
X145633Y136642D01*
X145667Y136532D01*
X145708Y136416D01*
X145756Y136293D01*
X145797Y136157D01*
X145851Y136013D01*
X145899Y135863D01*
X146008Y135556D01*
X146118Y135235D01*
X146227Y134914D01*
X146336Y134600D01*
X146384Y134449D01*
X146432Y134306D01*
X146480Y134169D01*
X146521Y134046D01*
X146562Y133930D01*
X146596Y133821D01*
X146630Y133732D01*
X146657Y133650D01*
X146678Y133589D01*
X146691Y133541D01*
X146705Y133514D01*
Y133500D01*
X146090D01*
X145196Y136246D01*
X144301Y133500D01*
X143707D01*
Y133507D01*
Y133514D01*
Y133527D01*
Y133534D01*
X144902Y136922D01*
Y136929D01*
X144888Y136956D01*
X144875Y137004D01*
X144854Y137058D01*
X144827Y137134D01*
X144799Y137222D01*
X144765Y137318D01*
X144724Y137427D01*
X144683Y137550D01*
X144642Y137680D01*
X144595Y137810D01*
X144547Y137953D01*
X144444Y138247D01*
X144335Y138547D01*
X144233Y138855D01*
X144130Y139148D01*
X144082Y139292D01*
X144035Y139428D01*
X143987Y139551D01*
X143946Y139674D01*
X143912Y139784D01*
X143877Y139886D01*
X143850Y139975D01*
X143823Y140050D01*
X143802Y140105D01*
X143789Y140152D01*
X143775Y140180D01*
Y140193D01*
X144396D01*
X145202Y137653D01*
X146043Y140193D01*
X146637D01*
Y140187D01*
D02*
G37*
G36*
X152531Y139667D02*
X150960D01*
Y137168D01*
X152394D01*
Y136635D01*
X150960D01*
Y134026D01*
X152558D01*
Y133500D01*
X150366D01*
Y140193D01*
X152531D01*
Y139667D01*
D02*
G37*
G36*
X148010Y134026D02*
X149553D01*
Y133500D01*
X147415D01*
Y140193D01*
X148010D01*
Y134026D01*
D02*
G37*
G36*
X144788Y150187D02*
X144843Y150173D01*
X144897Y150159D01*
X144952Y150132D01*
X145013Y150098D01*
X145068Y150050D01*
X145075Y150043D01*
X145089Y150023D01*
X145116Y149995D01*
X145143Y149954D01*
X145164Y149907D01*
X145191Y149845D01*
X145205Y149770D01*
X145212Y149695D01*
Y148165D01*
X144611D01*
Y149668D01*
X143094D01*
Y144026D01*
X144611D01*
Y146341D01*
X143893D01*
Y146853D01*
X145212D01*
Y143992D01*
Y143985D01*
Y143958D01*
X145205Y143917D01*
X145191Y143869D01*
X145177Y143807D01*
X145150Y143753D01*
X145116Y143691D01*
X145068Y143637D01*
X145061Y143630D01*
X145041Y143616D01*
X145013Y143596D01*
X144973Y143568D01*
X144925Y143541D01*
X144863Y143520D01*
X144788Y143507D01*
X144713Y143500D01*
X142958D01*
X142917Y143507D01*
X142869Y143520D01*
X142807Y143534D01*
X142753Y143555D01*
X142691Y143589D01*
X142637Y143637D01*
X142630Y143643D01*
X142616Y143664D01*
X142596Y143691D01*
X142568Y143732D01*
X142541Y143787D01*
X142520Y143842D01*
X142507Y143917D01*
X142500Y143992D01*
Y149695D01*
Y149702D01*
Y149729D01*
X142507Y149770D01*
X142520Y149825D01*
X142534Y149879D01*
X142555Y149934D01*
X142589Y149995D01*
X142637Y150050D01*
X142643Y150057D01*
X142664Y150071D01*
X142691Y150098D01*
X142732Y150125D01*
X142787Y150146D01*
X142841Y150173D01*
X142917Y150187D01*
X142992Y150193D01*
X144747D01*
X144788Y150187D01*
D02*
G37*
G36*
X149030Y143500D02*
X148613D01*
X146830Y148418D01*
Y143500D01*
X146270D01*
Y150193D01*
X146714D01*
X148469Y145351D01*
Y150193D01*
X149030D01*
Y143500D01*
D02*
G37*
G36*
X151720Y150187D02*
X151768D01*
X151816Y150173D01*
X151939Y150152D01*
X152083Y150111D01*
X152226Y150050D01*
X152301Y150009D01*
X152376Y149968D01*
X152445Y149913D01*
X152513Y149852D01*
X152520Y149845D01*
X152526Y149838D01*
X152547Y149818D01*
X152567Y149790D01*
X152595Y149756D01*
X152622Y149715D01*
X152690Y149613D01*
X152752Y149490D01*
X152806Y149340D01*
X152848Y149169D01*
X152854Y149073D01*
X152861Y148978D01*
Y144709D01*
Y144702D01*
Y144688D01*
Y144661D01*
X152854Y144620D01*
X152848Y144572D01*
X152841Y144525D01*
X152820Y144402D01*
X152772Y144265D01*
X152711Y144115D01*
X152670Y144040D01*
X152622Y143971D01*
X152567Y143903D01*
X152506Y143835D01*
X152499Y143828D01*
X152492Y143821D01*
X152472Y143807D01*
X152445Y143780D01*
X152410Y143760D01*
X152369Y143732D01*
X152267Y143671D01*
X152137Y143609D01*
X151994Y143555D01*
X151823Y143514D01*
X151727Y143507D01*
X151632Y143500D01*
X150102D01*
Y150193D01*
X151686D01*
X151720Y150187D01*
D02*
G37*
%LPC*%
G36*
X236776Y175133D02*
X234692D01*
Y172437D01*
X235734Y171739D01*
X236776Y172437D01*
Y175133D01*
D02*
G37*
G36*
X235734Y171031D02*
X234673Y170324D01*
Y167236D01*
X236805D01*
Y170324D01*
X235734Y171031D01*
D02*
G37*
G36*
X224587Y175133D02*
X222427D01*
Y167236D01*
X224587D01*
Y175133D01*
D02*
G37*
G36*
X204511D02*
X202351D01*
Y167236D01*
X204511D01*
Y175133D01*
D02*
G37*
G36*
X170643Y175554D02*
X167313D01*
X169511D01*
Y172807D01*
X169404D01*
X169273Y172815D01*
X169019D01*
X168937Y172823D01*
X168707D01*
X168478Y172815D01*
X168281Y172807D01*
X168117Y172790D01*
X167986Y172766D01*
X167879Y172741D01*
X167805Y172725D01*
X167764Y172716D01*
X167748Y172708D01*
X167674Y172684D01*
X167609Y172651D01*
X167543Y172610D01*
X167494Y172569D01*
X167420Y172487D01*
X167371Y172405D01*
X167338Y172331D01*
X167322Y172266D01*
X167313Y172224D01*
Y168707D01*
X167322Y168551D01*
X167338Y168420D01*
X167363Y168297D01*
X167395Y168207D01*
X167420Y168124D01*
X167445Y168075D01*
X167461Y168034D01*
X167469Y168026D01*
X167535Y167944D01*
X167609Y167887D01*
X167682Y167838D01*
X167756Y167813D01*
X167822Y167797D01*
X167871Y167788D01*
X167904Y167780D01*
X167970D01*
X168035Y167788D01*
X168133Y167797D01*
X168240Y167813D01*
X168363Y167829D01*
X168502Y167846D01*
X168781Y167887D01*
X168921Y167903D01*
X169052Y167920D01*
X169175Y167936D01*
X169290Y167952D01*
X169380Y167969D01*
X169454Y167977D01*
X169495Y167985D01*
X169511D01*
Y167813D01*
X170643D01*
Y167780D01*
D01*
D01*
Y175554D01*
D02*
G37*
G36*
X131094Y175554D02*
X129962D01*
Y172807D01*
X129856D01*
X129725Y172815D01*
X129471D01*
X129388Y172823D01*
X129159D01*
X128929Y172815D01*
X128732Y172807D01*
X128568Y172790D01*
X128437Y172766D01*
X128331Y172741D01*
X128257Y172725D01*
X128216Y172716D01*
X128200Y172708D01*
X128126Y172684D01*
X128060Y172651D01*
X127995Y172610D01*
X127945Y172569D01*
X127872Y172487D01*
X127822Y172405D01*
X127789Y172331D01*
X127773Y172266D01*
X127765Y172224D01*
Y167780D01*
X131094D01*
Y175554D01*
D02*
G37*
G36*
X139269Y172823D02*
X135932D01*
X138540D01*
X138408Y172807D01*
X138277Y172799D01*
X138146Y172782D01*
X138031Y172766D01*
X137941Y172757D01*
X137908Y172749D01*
X137884Y172741D01*
X137859D01*
X137711Y172716D01*
X137564Y172692D01*
X137433Y172676D01*
X137310Y172659D01*
X137211Y172643D01*
X137129Y172626D01*
X137080Y172618D01*
X137064D01*
Y172807D01*
X135932D01*
Y165984D01*
X137064D01*
Y167813D01*
X137301D01*
X137359Y167805D01*
X137548D01*
X137629Y167797D01*
X137867D01*
X138097Y167805D01*
X138294Y167821D01*
X138458Y167854D01*
X138589Y167887D01*
X138696Y167911D01*
X138769Y167944D01*
X138810Y167960D01*
X138827Y167969D01*
X138900Y168018D01*
X138974Y168075D01*
X139032Y168133D01*
X139081Y168206D01*
X139155Y168346D01*
X139212Y168485D01*
X139245Y168616D01*
X139253Y168674D01*
X139261Y168723D01*
X139269Y168764D01*
Y167797D01*
Y172823D01*
D02*
G37*
G36*
X166092Y172823D02*
X165952D01*
X165837Y172807D01*
X165715Y172799D01*
X165608Y172782D01*
X165509Y172766D01*
X165436Y172757D01*
X165378Y172741D01*
X165362D01*
X165231Y172716D01*
X165108Y172692D01*
X164985Y172667D01*
X164878Y172651D01*
X164796Y172634D01*
X164722Y172618D01*
X164681Y172610D01*
X164665D01*
Y172807D01*
X163533D01*
Y167813D01*
X166682D01*
Y172216D01*
Y172208D01*
X166674Y172315D01*
X166657Y172413D01*
X166625Y172487D01*
X166584Y172561D01*
X166534Y172618D01*
X166485Y172667D01*
X166428Y172708D01*
X166370Y172741D01*
X166256Y172790D01*
X166165Y172815D01*
X166124D01*
X166092Y172823D01*
D02*
G37*
G36*
X150052Y172823D02*
X146904D01*
X149323D01*
X149208Y172807D01*
X149085Y172799D01*
X148978Y172782D01*
X148880Y172766D01*
X148806Y172757D01*
X148749Y172741D01*
X148732D01*
X148601Y172716D01*
X148478Y172692D01*
X148355Y172667D01*
X148249Y172651D01*
X148167Y172634D01*
X148093Y172618D01*
X148052Y172610D01*
X148035D01*
Y172807D01*
X146904D01*
Y167813D01*
X150052D01*
X148035D01*
Y171831D01*
X148929Y171855D01*
Y170724D01*
X150052D01*
Y172208D01*
X150044Y172315D01*
X150028Y172413D01*
X149995Y172487D01*
X149954Y172561D01*
X149905Y172618D01*
X149856Y172667D01*
X149798Y172708D01*
X149741Y172741D01*
X149626Y172790D01*
X149536Y172815D01*
X149495D01*
X149462Y172823D01*
X150052D01*
D02*
G37*
G36*
X158695Y172799D02*
D01*
Y172192D01*
X158687Y172298D01*
X158671Y172389D01*
X158638Y172470D01*
X158597Y172544D01*
X158548Y172602D01*
X158499Y172651D01*
X158441Y172692D01*
X158384Y172725D01*
X158269Y172766D01*
X158179Y172790D01*
X158138Y172799D01*
X156006D01*
X155899Y172790D01*
X155809Y172774D01*
X155727Y172741D01*
X155653Y172700D01*
X155596Y172659D01*
X155546Y172610D01*
X155505Y172553D01*
X155473Y172495D01*
X155432Y172380D01*
X155407Y172290D01*
Y172249D01*
X155399Y172216D01*
Y168420D01*
X155407Y168313D01*
X155423Y168223D01*
X155456Y168141D01*
X155497Y168067D01*
X155538Y168010D01*
X155587Y167961D01*
X155645Y167920D01*
X155702Y167887D01*
X155817Y167846D01*
X155907Y167821D01*
X155948D01*
X155981Y167813D01*
X155399D01*
D01*
X158695D01*
Y172799D01*
D02*
G37*
G36*
X135128Y172807D02*
D01*
Y172192D01*
X135120Y172298D01*
X135104Y172397D01*
X135071Y172470D01*
X135030Y172544D01*
X134981Y172602D01*
X134932Y172651D01*
X134874Y172692D01*
X134817Y172725D01*
X134702Y172774D01*
X134612Y172799D01*
X134571D01*
X134538Y172807D01*
X132496D01*
X132398Y172799D01*
X132316Y172782D01*
X132242Y172749D01*
X132176Y172708D01*
X132127Y172659D01*
X132078Y172610D01*
X132012Y172495D01*
X131980Y172380D01*
X131955Y172290D01*
X131947Y172249D01*
Y172216D01*
Y172200D01*
Y172192D01*
Y171265D01*
X132972D01*
Y171962D01*
X134054D01*
Y170822D01*
X132439D01*
X132341Y170814D01*
X132258Y170798D01*
X132185Y170765D01*
X132119Y170724D01*
X132070Y170675D01*
X132021Y170625D01*
X131955Y170511D01*
X131922Y170396D01*
X131898Y170306D01*
X131889Y170265D01*
Y168403D01*
X131898Y168297D01*
X131914Y168206D01*
X131939Y168124D01*
X131972Y168059D01*
X132012Y168001D01*
X132062Y167952D01*
X132103Y167911D01*
X132160Y167878D01*
X132250Y167829D01*
X132341Y167805D01*
X132373D01*
X132398Y167797D01*
X131889D01*
D01*
X135128D01*
Y172807D01*
D02*
G37*
G36*
X122984Y170347D02*
Y170306D01*
D01*
Y170347D01*
D02*
G37*
G36*
Y170043D02*
Y169477D01*
D01*
Y170043D01*
D02*
G37*
G36*
Y168977D02*
Y168912D01*
D01*
Y168977D01*
D02*
G37*
G36*
Y168313D02*
D01*
D01*
D01*
D02*
G37*
G36*
Y167960D02*
D01*
D01*
D01*
D02*
G37*
G36*
Y167920D02*
D01*
D01*
D01*
D02*
G37*
G36*
X153939Y175554D02*
X150758D01*
Y167813D01*
X154554D01*
Y170806D01*
X154546Y170954D01*
X154513Y171077D01*
X154472Y171191D01*
X154423Y171282D01*
X154366Y171355D01*
X154325Y171405D01*
X154292Y171437D01*
X154284Y171446D01*
X154276Y171454D01*
X154251Y171478D01*
X154210Y171495D01*
X154169Y171528D01*
X154070Y171593D01*
X153956Y171659D01*
X153841Y171732D01*
X153751Y171790D01*
X153710Y171815D01*
X153677Y171831D01*
X153660Y171847D01*
X153652D01*
X153751Y171913D01*
X153841Y171962D01*
X153923Y172011D01*
X153988Y172061D01*
X154046Y172093D01*
X154095Y172126D01*
X154136Y172151D01*
X154169Y172175D01*
X154218Y172200D01*
X154243Y172224D01*
X154259Y172233D01*
X154341Y172323D01*
X154407Y172421D01*
X154448Y172528D01*
X154480Y172626D01*
X154497Y172708D01*
X154513Y172782D01*
Y172831D01*
Y172839D01*
Y172848D01*
Y174939D01*
X154505Y175045D01*
X154489Y175144D01*
X154456Y175217D01*
X154415Y175291D01*
X154374Y175349D01*
X154316Y175398D01*
X154267Y175439D01*
X154210Y175472D01*
X154103Y175521D01*
X154005Y175546D01*
X153972D01*
X153939Y175554D01*
D02*
G37*
G36*
X145493Y172807D02*
X143460D01*
X143353Y172799D01*
X143263Y172782D01*
X143181Y172749D01*
X143107Y172708D01*
X143050Y172659D01*
X143000Y172610D01*
X142959Y172552D01*
X142927Y172495D01*
X142886Y172380D01*
X142861Y172290D01*
Y172249D01*
X142853Y172216D01*
Y168420D01*
X142861Y168313D01*
X142877Y168223D01*
X142910Y168141D01*
X142951Y168067D01*
X142992Y168010D01*
X143042Y167960D01*
X143099Y167920D01*
X143156Y167887D01*
X143271Y167846D01*
X143361Y167821D01*
X143402D01*
X143435Y167813D01*
X142853D01*
D01*
X146084D01*
Y172192D01*
X146075Y172298D01*
X146059Y172397D01*
X146026Y172470D01*
X145985Y172544D01*
X145936Y172602D01*
X145887Y172651D01*
X145829Y172692D01*
X145772Y172725D01*
X145657Y172774D01*
X145567Y172799D01*
X145526D01*
X145493Y172807D01*
D02*
G37*
G36*
X141475Y174160D02*
X140344D01*
Y172807D01*
X139811D01*
Y171839D01*
X140344D01*
Y168420D01*
X140352Y168313D01*
X140368Y168223D01*
X140401Y168141D01*
X140442Y168067D01*
X140483Y168010D01*
X140532Y167960D01*
X140590Y167920D01*
X140647Y167887D01*
X140762Y167846D01*
X140852Y167821D01*
X140893D01*
X140926Y167813D01*
X139811D01*
X142230D01*
Y168780D01*
X141475D01*
Y171839D01*
X142197D01*
Y172807D01*
X141475D01*
Y174160D01*
D02*
G37*
G36*
X125698Y175562D02*
X124485D01*
X122984Y167829D01*
Y167813D01*
X127191D01*
X125698Y175562D01*
D02*
G37*
G36*
X162139Y172807D02*
X159491D01*
X160098D01*
X159999Y172799D01*
X159917Y172782D01*
X159843Y172749D01*
X159778Y172708D01*
X159728Y172659D01*
X159679Y172610D01*
X159614Y172495D01*
X159581Y172380D01*
X159556Y172290D01*
X159548Y172249D01*
Y172216D01*
Y172200D01*
Y172192D01*
Y171265D01*
X160573D01*
Y171962D01*
X161655D01*
Y170822D01*
X160040D01*
X159942Y170814D01*
X159860Y170798D01*
X159786Y170765D01*
X159720Y170724D01*
X159671Y170675D01*
X159622Y170625D01*
X159556Y170511D01*
X159523Y170396D01*
X159499Y170306D01*
X159491Y170265D01*
Y168403D01*
X159499Y168297D01*
X159515Y168207D01*
X159540Y168124D01*
X159573Y168059D01*
X159614Y168001D01*
X159663Y167952D01*
X159704Y167911D01*
X159761Y167878D01*
X159851Y167829D01*
X159942Y167805D01*
X159975D01*
X159999Y167797D01*
X159491D01*
X162730D01*
Y172192D01*
X162722Y172298D01*
X162705Y172397D01*
X162672Y172470D01*
X162631Y172544D01*
X162582Y172602D01*
X162533Y172651D01*
X162476Y172692D01*
X162418Y172725D01*
X162303Y172774D01*
X162213Y172799D01*
X162172D01*
X162139Y172807D01*
D02*
G37*
%LPD*%
G36*
X169511Y168789D02*
X169396Y168781D01*
X169298Y168772D01*
X169208Y168764D01*
X169126Y168756D01*
X169060Y168748D01*
X169003D01*
X168953Y168739D01*
X168912D01*
X168847Y168731D01*
X168790D01*
X168724Y168739D01*
X168675Y168748D01*
X168584Y168789D01*
X168527Y168846D01*
X168478Y168912D01*
X168453Y168977D01*
X168445Y169035D01*
X168437Y169076D01*
Y169092D01*
Y171486D01*
X168445Y171552D01*
X168453Y171609D01*
X168494Y171708D01*
X168552Y171774D01*
X168625Y171815D01*
X168691Y171847D01*
X168748Y171855D01*
X168790Y171864D01*
X169511D01*
Y168789D01*
D02*
G37*
G36*
X129962Y168789D02*
X129848Y168780D01*
X129749Y168772D01*
X129659Y168764D01*
X129577Y168756D01*
X129511Y168748D01*
X129454D01*
X129405Y168739D01*
X129364D01*
X129298Y168731D01*
X129241D01*
X129175Y168739D01*
X129126Y168748D01*
X129036Y168789D01*
X128978Y168846D01*
X128929Y168912D01*
X128905Y168977D01*
X128896Y169035D01*
X128888Y169076D01*
Y169092D01*
Y171486D01*
X128896Y171552D01*
X128905Y171609D01*
X128946Y171708D01*
X129003Y171774D01*
X129077Y171815D01*
X129142Y171847D01*
X129200Y171855D01*
X129241Y171864D01*
X129962D01*
Y168789D01*
D02*
G37*
G36*
Y167813D02*
X131094D01*
Y167780D01*
X128421D01*
X128486Y167788D01*
X128585Y167797D01*
X128691Y167813D01*
X128814Y167829D01*
X128954Y167846D01*
X129233Y167887D01*
X129372Y167903D01*
X129503Y167920D01*
X129626Y167936D01*
X129741Y167952D01*
X129831Y167969D01*
X129905Y167977D01*
X129946Y167985D01*
X129962D01*
Y167813D01*
D02*
G37*
G36*
X127773Y168551D02*
X127789Y168420D01*
X127814Y168297D01*
X127847Y168206D01*
X127872Y168124D01*
X127896Y168075D01*
X127912Y168034D01*
X127921Y168026D01*
X127986Y167944D01*
X128060Y167887D01*
X128134Y167837D01*
X128208Y167813D01*
X128273Y167797D01*
X128323Y167788D01*
X128355Y167780D01*
X127765D01*
Y168707D01*
X127773Y168551D01*
D02*
G37*
G36*
X139269Y172208D02*
X139261Y172315D01*
X139245Y172413D01*
X139212Y172487D01*
X139171Y172561D01*
X139122Y172618D01*
X139073Y172667D01*
X139015Y172708D01*
X138958Y172741D01*
X138843Y172790D01*
X138753Y172815D01*
X138712D01*
X138679Y172823D01*
X139269D01*
Y172208D01*
D02*
G37*
G36*
X138130Y169125D02*
Y169059D01*
X138113Y169002D01*
X138072Y168912D01*
X138015Y168846D01*
X137949Y168805D01*
X137875Y168772D01*
X137818Y168764D01*
X137777Y168756D01*
X137064D01*
Y171839D01*
X138130Y171855D01*
Y169125D01*
D02*
G37*
G36*
X165559Y170724D02*
X166682D01*
Y167813D01*
X164665D01*
Y171831D01*
X165559Y171855D01*
Y170724D01*
D02*
G37*
G36*
X157588Y168748D02*
X156514D01*
Y171855D01*
X157588D01*
Y168748D01*
D02*
G37*
G36*
X158695Y167813D02*
X158080D01*
X158187Y167821D01*
X158285Y167838D01*
X158359Y167870D01*
X158433Y167911D01*
X158490Y167952D01*
X158539Y168001D01*
X158580Y168059D01*
X158613Y168116D01*
X158662Y168231D01*
X158687Y168321D01*
Y168362D01*
X158695Y168395D01*
Y167813D01*
D02*
G37*
G36*
X134054Y168715D02*
X132972Y168674D01*
Y170051D01*
X134054D01*
Y168715D01*
D02*
G37*
G36*
X134038Y167813D02*
X135128D01*
Y167797D01*
X132537D01*
X132660Y167805D01*
X132800Y167821D01*
X132923Y167837D01*
X133046Y167846D01*
X133136Y167862D01*
X133177D01*
X133201Y167870D01*
X133226D01*
X133382Y167895D01*
X133529Y167911D01*
X133661Y167936D01*
X133784Y167952D01*
X133890Y167969D01*
X133972Y167985D01*
X133997D01*
X134021Y167993D01*
X134038D01*
Y167813D01*
D02*
G37*
G36*
X153357Y172700D02*
X152799Y172307D01*
X151914D01*
Y174578D01*
X153357D01*
Y172700D01*
D02*
G37*
G36*
X153390Y170986D02*
Y168789D01*
X151914D01*
Y171363D01*
X152816D01*
X153390Y170986D01*
D02*
G37*
G36*
X154554Y167813D02*
X153939D01*
X154046Y167821D01*
X154144Y167838D01*
X154218Y167870D01*
X154292Y167911D01*
X154349Y167952D01*
X154399Y168001D01*
X154439Y168059D01*
X154472Y168116D01*
X154522Y168231D01*
X154546Y168321D01*
Y168362D01*
X154554Y168395D01*
Y167813D01*
D02*
G37*
G36*
X145001Y170773D02*
X143935D01*
Y171978D01*
X145001D01*
Y170773D01*
D02*
G37*
G36*
X146084Y169477D02*
X145001D01*
Y168641D01*
X143935D01*
Y170043D01*
X145764D01*
X146084Y170347D01*
Y169477D01*
D02*
G37*
G36*
Y167813D02*
X145469D01*
X145575Y167821D01*
X145674Y167837D01*
X145747Y167870D01*
X145821Y167911D01*
X145879Y167952D01*
X145928Y168001D01*
X145969Y168059D01*
X146002Y168116D01*
X146051Y168231D01*
X146075Y168321D01*
Y168362D01*
X146084Y168395D01*
Y167813D01*
D02*
G37*
G36*
X125641Y170273D02*
X124509D01*
X125083Y173758D01*
X125641Y170273D01*
D02*
G37*
G36*
X126043Y167813D02*
X124124D01*
X124354Y169281D01*
X125805D01*
X126043Y167813D01*
D02*
G37*
G36*
X161655Y168715D02*
X160573Y168674D01*
Y170052D01*
X161655D01*
Y168715D01*
D02*
G37*
G36*
X161639Y167813D02*
X162730D01*
Y167797D01*
X160138D01*
X160261Y167805D01*
X160401Y167821D01*
X160524Y167838D01*
X160647Y167846D01*
X160737Y167862D01*
X160778D01*
X160803Y167870D01*
X160827D01*
X160983Y167895D01*
X161131Y167911D01*
X161262Y167936D01*
X161385Y167952D01*
X161492Y167969D01*
X161574Y167985D01*
X161598D01*
X161623Y167993D01*
X161639D01*
Y167813D01*
D02*
G37*
%LPC*%
G36*
X177414Y99168D02*
X176594D01*
Y93526D01*
X177441D01*
X177503Y93540D01*
X177585Y93553D01*
X177673Y93574D01*
X177769Y93608D01*
X177858Y93656D01*
X177947Y93724D01*
X177953Y93731D01*
X177981Y93758D01*
X178015Y93806D01*
X178056Y93867D01*
X178097Y93942D01*
X178131Y94038D01*
X178158Y94141D01*
X178165Y94263D01*
Y98430D01*
Y98437D01*
Y98444D01*
Y98484D01*
X178151Y98546D01*
X178138Y98621D01*
X178111Y98703D01*
X178076Y98792D01*
X178022Y98881D01*
X177953Y98963D01*
X177947Y98969D01*
X177919Y98997D01*
X177871Y99031D01*
X177810Y99065D01*
X177735Y99106D01*
X177639Y99133D01*
X177530Y99161D01*
X177414Y99168D01*
D02*
G37*
G36*
Y109168D02*
X176594D01*
Y103526D01*
X177441D01*
X177503Y103540D01*
X177585Y103553D01*
X177673Y103574D01*
X177769Y103608D01*
X177858Y103656D01*
X177947Y103724D01*
X177953Y103731D01*
X177981Y103758D01*
X178015Y103806D01*
X178056Y103867D01*
X178097Y103943D01*
X178131Y104038D01*
X178158Y104141D01*
X178165Y104264D01*
Y108430D01*
Y108437D01*
Y108443D01*
Y108484D01*
X178151Y108546D01*
X178138Y108621D01*
X178111Y108703D01*
X178076Y108792D01*
X178022Y108881D01*
X177953Y108963D01*
X177947Y108969D01*
X177919Y108997D01*
X177871Y109031D01*
X177810Y109065D01*
X177735Y109106D01*
X177639Y109133D01*
X177530Y109161D01*
X177414Y109168D01*
D02*
G37*
G36*
Y119167D02*
X176594D01*
Y113526D01*
X177441D01*
X177503Y113540D01*
X177585Y113553D01*
X177673Y113574D01*
X177769Y113608D01*
X177858Y113656D01*
X177947Y113724D01*
X177953Y113731D01*
X177981Y113758D01*
X178015Y113806D01*
X178056Y113867D01*
X178097Y113943D01*
X178131Y114038D01*
X178158Y114141D01*
X178165Y114264D01*
Y118430D01*
Y118437D01*
Y118444D01*
Y118484D01*
X178151Y118546D01*
X178138Y118621D01*
X178111Y118703D01*
X178076Y118792D01*
X178022Y118881D01*
X177953Y118963D01*
X177947Y118969D01*
X177919Y118997D01*
X177871Y119031D01*
X177810Y119065D01*
X177735Y119106D01*
X177639Y119133D01*
X177530Y119161D01*
X177414Y119167D01*
D02*
G37*
G36*
Y129167D02*
X176594D01*
Y123526D01*
X177441D01*
X177503Y123540D01*
X177585Y123553D01*
X177673Y123574D01*
X177769Y123608D01*
X177858Y123656D01*
X177947Y123724D01*
X177953Y123731D01*
X177981Y123758D01*
X178015Y123806D01*
X178056Y123867D01*
X178097Y123942D01*
X178131Y124038D01*
X178158Y124141D01*
X178165Y124264D01*
Y128430D01*
Y128437D01*
Y128444D01*
Y128484D01*
X178151Y128546D01*
X178138Y128621D01*
X178111Y128703D01*
X178076Y128792D01*
X178022Y128881D01*
X177953Y128963D01*
X177947Y128969D01*
X177919Y128997D01*
X177871Y129031D01*
X177810Y129065D01*
X177735Y129106D01*
X177639Y129133D01*
X177530Y129161D01*
X177414Y129167D01*
D02*
G37*
G36*
X148614Y89688D02*
X147152D01*
Y86710D01*
X148614D01*
Y89688D01*
D02*
G37*
G36*
X151483Y96669D02*
X150022D01*
Y94026D01*
X151483D01*
Y96669D01*
D02*
G37*
G36*
X147037Y99668D02*
X146217D01*
Y94026D01*
X147064D01*
X147126Y94040D01*
X147208Y94053D01*
X147297Y94074D01*
X147392Y94108D01*
X147481Y94156D01*
X147570Y94224D01*
X147576Y94231D01*
X147604Y94258D01*
X147638Y94306D01*
X147679Y94367D01*
X147720Y94442D01*
X147754Y94538D01*
X147781Y94641D01*
X147788Y94763D01*
Y98930D01*
Y98937D01*
Y98944D01*
Y98984D01*
X147775Y99046D01*
X147761Y99121D01*
X147734Y99203D01*
X147699Y99292D01*
X147645Y99381D01*
X147576Y99463D01*
X147570Y99469D01*
X147542Y99497D01*
X147494Y99531D01*
X147433Y99565D01*
X147358Y99606D01*
X147262Y99633D01*
X147153Y99661D01*
X147037Y99668D01*
D02*
G37*
G36*
X147064Y109668D02*
X146245D01*
Y104026D01*
X147092D01*
X147153Y104040D01*
X147235Y104053D01*
X147324Y104074D01*
X147419Y104108D01*
X147508Y104156D01*
X147597Y104224D01*
X147604Y104231D01*
X147631Y104258D01*
X147665Y104306D01*
X147706Y104367D01*
X147747Y104443D01*
X147781Y104538D01*
X147809Y104641D01*
X147816Y104764D01*
Y108930D01*
Y108937D01*
Y108943D01*
Y108984D01*
X147802Y109046D01*
X147788Y109121D01*
X147761Y109203D01*
X147727Y109292D01*
X147672Y109381D01*
X147604Y109463D01*
X147597Y109469D01*
X147570Y109497D01*
X147522Y109531D01*
X147460Y109565D01*
X147385Y109606D01*
X147290Y109633D01*
X147180Y109661D01*
X147064Y109668D01*
D02*
G37*
G36*
X147157Y119667D02*
X146337D01*
Y114026D01*
X147184D01*
X147246Y114040D01*
X147328Y114053D01*
X147417Y114074D01*
X147512Y114108D01*
X147601Y114156D01*
X147690Y114224D01*
X147697Y114231D01*
X147724Y114258D01*
X147758Y114306D01*
X147799Y114367D01*
X147840Y114443D01*
X147874Y114538D01*
X147901Y114641D01*
X147908Y114764D01*
Y118930D01*
Y118937D01*
Y118944D01*
Y118984D01*
X147895Y119046D01*
X147881Y119121D01*
X147854Y119203D01*
X147820Y119292D01*
X147765Y119381D01*
X147697Y119463D01*
X147690Y119469D01*
X147662Y119497D01*
X147615Y119531D01*
X147553Y119565D01*
X147478Y119606D01*
X147382Y119633D01*
X147273Y119661D01*
X147157Y119667D01*
D02*
G37*
G36*
X151500Y129667D02*
X149956D01*
Y124026D01*
X151500D01*
Y129667D01*
D02*
G37*
G36*
X146971D02*
X146152D01*
Y124026D01*
X146999D01*
X147060Y124040D01*
X147142Y124053D01*
X147231Y124074D01*
X147327Y124108D01*
X147415Y124156D01*
X147504Y124224D01*
X147511Y124231D01*
X147538Y124258D01*
X147573Y124306D01*
X147613Y124367D01*
X147654Y124443D01*
X147689Y124538D01*
X147716Y124641D01*
X147723Y124764D01*
Y128930D01*
Y128937D01*
Y128944D01*
Y128984D01*
X147709Y129046D01*
X147695Y129121D01*
X147668Y129203D01*
X147634Y129292D01*
X147579Y129381D01*
X147511Y129463D01*
X147504Y129469D01*
X147477Y129497D01*
X147429Y129531D01*
X147368Y129565D01*
X147292Y129606D01*
X147197Y129633D01*
X147088Y129661D01*
X146971Y129667D01*
D02*
G37*
G36*
X151516Y149668D02*
X150696D01*
Y144026D01*
X151543D01*
X151604Y144040D01*
X151686Y144053D01*
X151775Y144074D01*
X151871Y144108D01*
X151960Y144156D01*
X152048Y144224D01*
X152055Y144231D01*
X152083Y144258D01*
X152117Y144306D01*
X152158Y144367D01*
X152199Y144442D01*
X152233Y144538D01*
X152260Y144641D01*
X152267Y144764D01*
Y148930D01*
Y148937D01*
Y148943D01*
Y148985D01*
X152253Y149046D01*
X152240Y149121D01*
X152212Y149203D01*
X152178Y149292D01*
X152123Y149381D01*
X152055Y149463D01*
X152048Y149469D01*
X152021Y149497D01*
X151973Y149531D01*
X151912Y149565D01*
X151837Y149606D01*
X151741Y149633D01*
X151632Y149661D01*
X151516Y149668D01*
D02*
G37*
%LPD*%
D10*
X174000Y81000D02*
Y151000D01*
X154000D02*
X174000D01*
X154000Y81000D02*
Y151000D01*
Y81000D02*
X174000D01*
X235213Y75154D02*
Y156846D01*
X225961Y75154D02*
X235213D01*
X211787D02*
X216315D01*
X211787D02*
Y82634D01*
X225961Y156846D02*
X235213D01*
X211787D02*
X216315D01*
X211787Y149366D02*
Y156846D01*
D11*
X210508Y80764D02*
Y82097D01*
Y81430D01*
X206509D01*
X207176Y80764D01*
Y149662D02*
X206509Y150328D01*
Y151661D01*
X207176Y152327D01*
X207842D01*
X208508Y151661D01*
Y150994D01*
Y151661D01*
X209175Y152327D01*
X209841D01*
X210508Y151661D01*
Y150328D01*
X209841Y149662D01*
X207176Y153660D02*
X206509Y154327D01*
Y155659D01*
X207176Y156326D01*
X207842D01*
X208508Y155659D01*
Y154993D01*
Y155659D01*
X209175Y156326D01*
X209841D01*
X210508Y155659D01*
Y154327D01*
X209841Y153660D01*
D12*
X232498Y146001D02*
Y148001D01*
Y147001D01*
X227500D01*
X226500Y148001D01*
Y149000D01*
X227500Y150000D01*
X232498Y144002D02*
X226500D01*
Y140003D01*
X231498Y134005D02*
X232498Y135005D01*
Y137004D01*
X231498Y138004D01*
X227500D01*
X226500Y137004D01*
Y135005D01*
X227500Y134005D01*
X232498Y128007D02*
Y130007D01*
Y129007D01*
X227500D01*
X226500Y130007D01*
Y131006D01*
X227500Y132006D01*
X232498Y126008D02*
X226500D01*
Y122009D01*
X231498Y116011D02*
X232498Y117011D01*
Y119010D01*
X231498Y120010D01*
X227500D01*
X226500Y119010D01*
Y117011D01*
X227500Y116011D01*
X232498Y110013D02*
Y112012D01*
Y111013D01*
X227500D01*
X226500Y112012D01*
Y113012D01*
X227500Y114012D01*
X232498Y108014D02*
X226500D01*
Y104015D01*
X231498Y98017D02*
X232498Y99016D01*
Y101016D01*
X231498Y102015D01*
X227500D01*
X226500Y101016D01*
Y99016D01*
X227500Y98017D01*
X232498Y92019D02*
Y94018D01*
Y93018D01*
X227500D01*
X226500Y94018D01*
Y95018D01*
X227500Y96017D01*
X232498Y90019D02*
X226500D01*
Y86021D01*
X231498Y80023D02*
X232498Y81022D01*
Y83022D01*
X231498Y84021D01*
X227500D01*
X226500Y83022D01*
Y81022D01*
X227500Y80023D01*
M02*
