G04*
G04 #@! TF.GenerationSoftware,Altium Limited,Altium Designer,21.4.1 (30)*
G04*
G04 Layer_Physical_Order=1*
G04 Layer_Color=255*
%FSLAX25Y25*%
%MOIN*%
G70*
G04*
G04 #@! TF.SameCoordinates,6122799F-D76E-4B8B-AD8C-C151083860E1*
G04*
G04*
G04 #@! TF.FilePolarity,Positive*
G04*
G01*
G75*
%ADD13R,0.05118X0.01181*%
%ADD14R,0.07087X0.07874*%
%ADD15C,0.06299*%
%ADD16R,0.06299X0.06299*%
%ADD17C,0.00598*%
%ADD18C,0.01181*%
%ADD19C,0.01968*%
G36*
X241000Y52500D02*
X119000D01*
Y179500D01*
X241000D01*
Y52500D01*
D02*
G37*
%LPC*%
G36*
X225279Y159118D02*
X216996D01*
Y150047D01*
X225279D01*
Y159118D01*
D02*
G37*
G36*
X213469Y148685D02*
X207154D01*
Y146307D01*
Y144339D01*
Y142370D01*
Y140402D01*
X213469D01*
Y142370D01*
Y144339D01*
Y146307D01*
Y148685D01*
D02*
G37*
G36*
X193000Y151000D02*
X165500D01*
X164000Y149500D01*
Y143000D01*
X162000Y141000D01*
X156500D01*
X154000Y138500D01*
Y81000D01*
X214000D01*
X217500Y84500D01*
Y136000D01*
X214657Y138843D01*
X205157D01*
X193000Y151000D01*
D02*
G37*
G36*
X225279Y81953D02*
X216996D01*
Y72882D01*
X225279D01*
Y81953D01*
D02*
G37*
%LPD*%
D13*
X210311Y147496D02*
D03*
Y145528D02*
D03*
Y139622D02*
D03*
Y137654D02*
D03*
Y131748D02*
D03*
Y129780D02*
D03*
Y123874D02*
D03*
Y121906D02*
D03*
Y116000D02*
D03*
Y112063D02*
D03*
Y110095D02*
D03*
Y104189D02*
D03*
Y102220D02*
D03*
Y96315D02*
D03*
Y94346D02*
D03*
Y84504D02*
D03*
Y86472D02*
D03*
Y88441D02*
D03*
Y90409D02*
D03*
Y92378D02*
D03*
Y98283D02*
D03*
Y100252D02*
D03*
Y106158D02*
D03*
Y108126D02*
D03*
Y114032D02*
D03*
Y117969D02*
D03*
Y119937D02*
D03*
Y125843D02*
D03*
Y127811D02*
D03*
Y133717D02*
D03*
Y135685D02*
D03*
Y141591D02*
D03*
Y143559D02*
D03*
D14*
X221138Y77417D02*
D03*
Y154583D02*
D03*
D15*
X169000Y146000D02*
D03*
X159000D02*
D03*
Y136000D02*
D03*
X169000D02*
D03*
X159000Y126000D02*
D03*
X169000D02*
D03*
X159000Y116000D02*
D03*
X169000D02*
D03*
X159000Y106000D02*
D03*
X169000D02*
D03*
X159000Y96000D02*
D03*
X169000D02*
D03*
X159000Y86000D02*
D03*
D16*
X169000D02*
D03*
D17*
X182268Y91000D02*
G03*
X181669Y90402I0J-598D01*
G01*
X181184Y89819D02*
G03*
X181669Y90304I0J485D01*
G01*
X180283D02*
G03*
X180769Y89819I485J0D01*
G01*
X180283Y91696D02*
G03*
X179798Y92181I-485J0D01*
G01*
X179383D02*
G03*
X178898Y91696I0J-485D01*
G01*
X178299Y91000D02*
G03*
X178898Y91598I0J598D01*
G01*
X195899Y86472D02*
G03*
X195301Y85874I0J-598D01*
G01*
X194816Y84720D02*
G03*
X195301Y85205I0J485D01*
G01*
X193915D02*
G03*
X194400Y84720I485J0D01*
G01*
X193915Y86199D02*
G03*
X193430Y86683I-485J0D01*
G01*
X193014D02*
G03*
X192529Y86199I0J-485D01*
G01*
X192044Y84720D02*
G03*
X192529Y85205I0J485D01*
G01*
X191143D02*
G03*
X191628Y84720I485J0D01*
G01*
X191143Y86199D02*
G03*
X190658Y86683I-485J0D01*
G01*
X190243D02*
G03*
X189758Y86199I0J-485D01*
G01*
X189272Y84720D02*
G03*
X189758Y85205I0J485D01*
G01*
X188372D02*
G03*
X188857Y84720I485J0D01*
G01*
X188372Y86199D02*
G03*
X187887Y86683I-485J0D01*
G01*
X187471D02*
G03*
X186986Y86199I0J-485D01*
G01*
X186501Y84720D02*
G03*
X186986Y85205I0J485D01*
G01*
X185600D02*
G03*
X186085Y84720I485J0D01*
G01*
X185600Y86199D02*
G03*
X185115Y86683I-485J0D01*
G01*
X184699D02*
G03*
X184214Y86199I0J-485D01*
G01*
X183729Y84720D02*
G03*
X184214Y85205I0J485D01*
G01*
X182828D02*
G03*
X183313Y84720I485J0D01*
G01*
X182828Y85874D02*
G03*
X182230Y86472I-598J0D01*
G01*
X182327Y96598D02*
G03*
X182925Y96000I598J0D01*
G01*
X182327Y96696D02*
G03*
X181842Y97181I-485J0D01*
G01*
X181426D02*
G03*
X180941Y96696I0J-485D01*
G01*
X180456Y94819D02*
G03*
X180941Y95304I0J485D01*
G01*
X179555D02*
G03*
X180040Y94819I485J0D01*
G01*
X179555Y96696D02*
G03*
X179070Y97181I-485J0D01*
G01*
X178654D02*
G03*
X178169Y96696I0J-485D01*
G01*
X177684Y94819D02*
G03*
X178169Y95304I0J485D01*
G01*
X176784D02*
G03*
X177269Y94819I485J0D01*
G01*
X176784Y96696D02*
G03*
X176298Y97181I-485J0D01*
G01*
X175883D02*
G03*
X175398Y96696I0J-485D01*
G01*
X174799Y96000D02*
G03*
X175398Y96598I0J598D01*
G01*
X185599Y106598D02*
G03*
X186197Y106000I598J0D01*
G01*
X185599Y106696D02*
G03*
X185114Y107181I-485J0D01*
G01*
X184698D02*
G03*
X184213Y106696I0J-485D01*
G01*
X183728Y104819D02*
G03*
X184213Y105304I0J485D01*
G01*
X182827D02*
G03*
X183312Y104819I485J0D01*
G01*
X182827Y106696D02*
G03*
X182342Y107181I-485J0D01*
G01*
X181926D02*
G03*
X181441Y106696I0J-485D01*
G01*
X180956Y104819D02*
G03*
X181441Y105304I0J485D01*
G01*
X180055D02*
G03*
X180540Y104819I485J0D01*
G01*
X180055Y106696D02*
G03*
X179570Y107181I-485J0D01*
G01*
X179154D02*
G03*
X178669Y106696I0J-485D01*
G01*
X178184Y104819D02*
G03*
X178669Y105304I0J485D01*
G01*
X177284D02*
G03*
X177769Y104819I485J0D01*
G01*
X177284Y106696D02*
G03*
X176798Y107181I-485J0D01*
G01*
X176383D02*
G03*
X175898Y106696I0J-485D01*
G01*
X175299Y106000D02*
G03*
X175898Y106598I0J598D01*
G01*
X175784Y112098D02*
G03*
X176382Y111500I598J0D01*
G01*
X175784Y112196D02*
G03*
X175299Y112681I-485J0D01*
G01*
X174883D02*
G03*
X174398Y112196I0J-485D01*
G01*
X173799Y111500D02*
G03*
X174398Y112098I0J598D01*
G01*
X185583Y116000D02*
G03*
X184984Y115402I0J-598D01*
G01*
X184499Y114819D02*
G03*
X184984Y115304I0J485D01*
G01*
X183598D02*
G03*
X184083Y114819I485J0D01*
G01*
X183598Y116696D02*
G03*
X183114Y117181I-485J0D01*
G01*
X182698D02*
G03*
X182213Y116696I0J-485D01*
G01*
X181728Y114819D02*
G03*
X182213Y115304I0J485D01*
G01*
X180827D02*
G03*
X181312Y114819I485J0D01*
G01*
X180827Y116696D02*
G03*
X180342Y117181I-485J0D01*
G01*
X179926D02*
G03*
X179441Y116696I0J-485D01*
G01*
X178956Y114819D02*
G03*
X179441Y115304I0J485D01*
G01*
X178055D02*
G03*
X178540Y114819I485J0D01*
G01*
X178055Y116696D02*
G03*
X177570Y117181I-485J0D01*
G01*
X177154D02*
G03*
X176669Y116696I0J-485D01*
G01*
X176184Y114819D02*
G03*
X176669Y115304I0J485D01*
G01*
X175284D02*
G03*
X175769Y114819I485J0D01*
G01*
X175284Y116696D02*
G03*
X174799Y117181I-485J0D01*
G01*
X174383D02*
G03*
X173898Y116696I0J-485D01*
G01*
X173299Y116000D02*
G03*
X173898Y116598I0J598D01*
G01*
X177831Y119937D02*
G03*
X177232Y119339I0J-598D01*
G01*
X176747Y118756D02*
G03*
X177232Y119241I0J485D01*
G01*
X175847D02*
G03*
X176331Y118756I485J0D01*
G01*
X175847Y120633D02*
G03*
X175361Y121118I-485J0D01*
G01*
X174946D02*
G03*
X174461Y120633I0J-485D01*
G01*
X173862Y119937D02*
G03*
X174461Y120536I0J598D01*
G01*
X185099Y126598D02*
G03*
X185697Y126000I598J0D01*
G01*
X185099Y126696D02*
G03*
X184614Y127181I-485J0D01*
G01*
X184198D02*
G03*
X183713Y126696I0J-485D01*
G01*
X183228Y124819D02*
G03*
X183713Y125304I0J485D01*
G01*
X182327D02*
G03*
X182812Y124819I485J0D01*
G01*
X182327Y126696D02*
G03*
X181842Y127181I-485J0D01*
G01*
X181426D02*
G03*
X180941Y126696I0J-485D01*
G01*
X180456Y124819D02*
G03*
X180941Y125304I0J485D01*
G01*
X179555D02*
G03*
X180040Y124819I485J0D01*
G01*
X179555Y126696D02*
G03*
X179070Y127181I-485J0D01*
G01*
X178654D02*
G03*
X178169Y126696I0J-485D01*
G01*
X177684Y124819D02*
G03*
X178169Y125304I0J485D01*
G01*
X176784D02*
G03*
X177269Y124819I485J0D01*
G01*
X176784Y126696D02*
G03*
X176298Y127181I-485J0D01*
G01*
X175883D02*
G03*
X175398Y126696I0J-485D01*
G01*
X174799Y126000D02*
G03*
X175398Y126598I0J598D01*
G01*
X178284Y131598D02*
G03*
X178882Y131000I598J0D01*
G01*
X178284Y131696D02*
G03*
X177798Y132181I-485J0D01*
G01*
X177383D02*
G03*
X176898Y131696I0J-485D01*
G01*
X176299Y131000D02*
G03*
X176898Y131598I0J598D01*
G01*
X186311Y136000D02*
G03*
X185713Y135402I0J-598D01*
G01*
X185228Y134819D02*
G03*
X185713Y135304I0J485D01*
G01*
X184327D02*
G03*
X184812Y134819I485J0D01*
G01*
X184327Y136696D02*
G03*
X183842Y137181I-485J0D01*
G01*
X183426D02*
G03*
X182941Y136696I0J-485D01*
G01*
X182456Y134819D02*
G03*
X182941Y135304I0J485D01*
G01*
X181555D02*
G03*
X182040Y134819I485J0D01*
G01*
X181555Y136696D02*
G03*
X181070Y137181I-485J0D01*
G01*
X180654D02*
G03*
X180169Y136696I0J-485D01*
G01*
X179684Y134819D02*
G03*
X180169Y135304I0J485D01*
G01*
X178784D02*
G03*
X179269Y134819I485J0D01*
G01*
X178784Y136696D02*
G03*
X178298Y137181I-485J0D01*
G01*
X177883D02*
G03*
X177398Y136696I0J-485D01*
G01*
X176799Y136000D02*
G03*
X177398Y136598I0J598D01*
G01*
X184811Y146000D02*
G03*
X184213Y145402I0J-598D01*
G01*
X183728Y144819D02*
G03*
X184213Y145304I0J485D01*
G01*
X182827D02*
G03*
X183312Y144819I485J0D01*
G01*
X182827Y146696D02*
G03*
X182342Y147181I-485J0D01*
G01*
X181926D02*
G03*
X181441Y146696I0J-485D01*
G01*
X180956Y144819D02*
G03*
X181441Y145304I0J485D01*
G01*
X180055D02*
G03*
X180540Y144819I485J0D01*
G01*
X180055Y146696D02*
G03*
X179570Y147181I-485J0D01*
G01*
X179154D02*
G03*
X178669Y146696I0J-485D01*
G01*
X178184Y144819D02*
G03*
X178669Y145304I0J485D01*
G01*
X177284D02*
G03*
X177769Y144819I485J0D01*
G01*
X177284Y146696D02*
G03*
X176798Y147181I-485J0D01*
G01*
X176383D02*
G03*
X175898Y146696I0J-485D01*
G01*
X175299Y146000D02*
G03*
X175898Y146598I0J598D01*
G01*
X182268Y91000D02*
X183500D01*
X181669Y90304D02*
Y90402D01*
X180769Y89819D02*
X181184D01*
X180283Y90304D02*
Y91696D01*
X179383Y92181D02*
X179798D01*
X178898Y91598D02*
Y91696D01*
X178000Y91000D02*
X178299D01*
X183500D02*
X203500D01*
X163000D02*
X178000D01*
X206059Y88441D02*
X210311D01*
X203500Y91000D02*
X206059Y88441D01*
X198909Y86472D02*
X210311D01*
X195899D02*
X198909D01*
X195301Y85205D02*
Y85874D01*
X194400Y84720D02*
X194816D01*
X193915Y85205D02*
Y86199D01*
X193014Y86683D02*
X193430D01*
X192529Y85205D02*
Y86199D01*
X191628Y84720D02*
X192044D01*
X191143Y85205D02*
Y86199D01*
X190243Y86683D02*
X190658D01*
X189758Y85205D02*
Y86199D01*
X188857Y84720D02*
X189272D01*
X188372Y85205D02*
Y86199D01*
X187471Y86683D02*
X187887D01*
X186986Y85205D02*
Y86199D01*
X186085Y84720D02*
X186501D01*
X185600Y85205D02*
Y86199D01*
X184699Y86683D02*
X185115D01*
X184214Y85205D02*
Y86199D01*
X183313Y84720D02*
X183729D01*
X182828Y85205D02*
Y85874D01*
X180545Y86472D02*
X182230D01*
X175972D02*
X180545D01*
X182925Y96000D02*
X184500D01*
X182327Y96598D02*
Y96696D01*
X181426Y97181D02*
X181842D01*
X180941Y95304D02*
Y96696D01*
X180040Y94819D02*
X180456D01*
X179555Y95304D02*
Y96696D01*
X178654Y97181D02*
X179070D01*
X178169Y95304D02*
Y96696D01*
X177269Y94819D02*
X177684D01*
X176784Y95304D02*
Y96696D01*
X175883Y97181D02*
X176298D01*
X175398Y96598D02*
Y96696D01*
X174500Y96000D02*
X174799D01*
X184500D02*
X193000D01*
X169000D02*
X174500D01*
X164500Y101000D02*
X191000D01*
X186197Y106000D02*
X187500D01*
X185599Y106598D02*
Y106696D01*
X184698Y107181D02*
X185114D01*
X184213Y105304D02*
Y106696D01*
X183312Y104819D02*
X183728D01*
X182827Y105304D02*
Y106696D01*
X181926Y107181D02*
X182342D01*
X181441Y105304D02*
Y106696D01*
X180540Y104819D02*
X180956D01*
X180055Y105304D02*
Y106696D01*
X179154Y107181D02*
X179570D01*
X178669Y105304D02*
Y106696D01*
X177769Y104819D02*
X178184D01*
X177284Y105304D02*
Y106696D01*
X176383Y107181D02*
X176798D01*
X175898Y106598D02*
Y106696D01*
X175000Y106000D02*
X175299D01*
X187500D02*
X189000D01*
X169000D02*
X175000D01*
X189000D02*
X197032Y114032D01*
X176382Y111500D02*
X178000D01*
X175784Y112098D02*
Y112196D01*
X174883Y112681D02*
X175299D01*
X174398Y112098D02*
Y112196D01*
X173500Y111500D02*
X173799D01*
X178000D02*
X188500D01*
X165000D02*
X173500D01*
X185583Y116000D02*
X187000D01*
X184984Y115304D02*
Y115402D01*
X184083Y114819D02*
X184499D01*
X183598Y115304D02*
Y116696D01*
X182698Y117181D02*
X183114D01*
X182213Y115304D02*
Y116696D01*
X181312Y114819D02*
X181728D01*
X180827Y115304D02*
Y116696D01*
X179926Y117181D02*
X180342D01*
X179441Y115304D02*
Y116696D01*
X178540Y114819D02*
X178956D01*
X178055Y115304D02*
Y116696D01*
X177154Y117181D02*
X177570D01*
X176669Y115304D02*
Y116696D01*
X175769Y114819D02*
X176184D01*
X175284Y115304D02*
Y116696D01*
X174383Y117181D02*
X174799D01*
X173898Y116598D02*
Y116696D01*
X173000Y116000D02*
X173299D01*
X187000D02*
X189500D01*
X169000D02*
X173000D01*
X191469Y117969D02*
X210311D01*
X189500Y116000D02*
X191469Y117969D01*
X177831Y119937D02*
X178784D01*
X177232Y119241D02*
Y119339D01*
X176331Y118756D02*
X176747D01*
X175847Y119241D02*
Y120633D01*
X174946Y121118D02*
X175361D01*
X174461Y120536D02*
Y120633D01*
X173563Y119937D02*
X173862D01*
X178784D02*
X210311D01*
X185697Y126000D02*
X187625D01*
X185099Y126598D02*
Y126696D01*
X184198Y127181D02*
X184614D01*
X183713Y125304D02*
Y126696D01*
X182812Y124819D02*
X183228D01*
X182327Y125304D02*
Y126696D01*
X181426Y127181D02*
X181842D01*
X180941Y125304D02*
Y126696D01*
X180040Y124819D02*
X180456D01*
X179555Y125304D02*
Y126696D01*
X178654Y127181D02*
X179070D01*
X178169Y125304D02*
Y126696D01*
X177269Y124819D02*
X177684D01*
X176784Y125304D02*
Y126696D01*
X175883Y127181D02*
X176298D01*
X175398Y126598D02*
Y126696D01*
X174500Y126000D02*
X174799D01*
X187625D02*
X190500D01*
X169000D02*
X174500D01*
X194594Y121906D02*
X210311D01*
X190500Y126000D02*
X194594Y121906D01*
X178882Y131000D02*
X181000D01*
X178284Y131598D02*
Y131696D01*
X177383Y132181D02*
X177798D01*
X176898Y131598D02*
Y131696D01*
X176000Y131000D02*
X176299D01*
X181000D02*
X189500D01*
X165500D02*
X176000D01*
X186311Y136000D02*
X188500D01*
X185713Y135304D02*
Y135402D01*
X184812Y134819D02*
X185228D01*
X184327Y135304D02*
Y136696D01*
X183426Y137181D02*
X183842D01*
X182941Y135304D02*
Y136696D01*
X182040Y134819D02*
X182456D01*
X181555Y135304D02*
Y136696D01*
X180654Y137181D02*
X181070D01*
X180169Y135304D02*
Y136696D01*
X179269Y134819D02*
X179684D01*
X178784Y135304D02*
Y136696D01*
X177883Y137181D02*
X178298D01*
X177398Y136598D02*
Y136696D01*
X176500Y136000D02*
X176799D01*
X188500D02*
X191500D01*
X169000D02*
X176500D01*
X165000Y141000D02*
X193000D01*
X184811Y146000D02*
X186000D01*
X184213Y145304D02*
Y145402D01*
X183312Y144819D02*
X183728D01*
X182827Y145304D02*
Y146696D01*
X181926Y147181D02*
X182342D01*
X181441Y145304D02*
Y146696D01*
X180540Y144819D02*
X180956D01*
X180055Y145304D02*
Y146696D01*
X179154Y147181D02*
X179570D01*
X178669Y145304D02*
Y146696D01*
X177769Y144819D02*
X178184D01*
X177284Y145304D02*
Y146696D01*
X176383Y147181D02*
X176798D01*
X175898Y146598D02*
Y146696D01*
X175000Y146000D02*
X175299D01*
X186000D02*
X194000D01*
X169000D02*
X175000D01*
X189500Y131000D02*
X196626Y123874D01*
X210311D01*
X201657Y125843D02*
X210311D01*
X191500Y136000D02*
X201657Y125843D01*
X193000Y141000D02*
X202252Y131748D01*
X210311D01*
X206283Y133717D02*
X210311D01*
X194000Y146000D02*
X206283Y133717D01*
X193000Y116000D02*
X210311D01*
X188500Y111500D02*
X193000Y116000D01*
X197032Y114032D02*
X210311D01*
X191000Y101000D02*
X202063Y112063D01*
X210311D01*
X207095Y110095D02*
X210311D01*
X193000Y96000D02*
X207095Y110095D01*
X160500Y126000D02*
X165500Y131000D01*
X159000Y126000D02*
X160500D01*
X159000Y136000D02*
X160000D01*
X165000Y141000D01*
X159000Y116000D02*
X160000D01*
X165000Y121000D01*
X159000Y106000D02*
X159500D01*
X165000Y111500D01*
X159500Y96000D02*
X164500Y101000D01*
X159000Y96000D02*
X159500D01*
X159000Y86000D02*
Y87000D01*
X163000Y91000D01*
X169000Y86000D02*
X175500D01*
X175972Y86472D01*
X165000Y121000D02*
X172500D01*
X173563Y119937D01*
D18*
X210311Y139622D02*
X214878D01*
X215000Y139500D01*
X164000Y151000D02*
X195500D01*
X206878Y139622D02*
X210311D01*
X195500Y151000D02*
X206878Y139622D01*
X159000Y146000D02*
X164000Y151000D01*
D19*
X235000Y170000D02*
D03*
X230000Y160000D02*
D03*
X235000Y150000D02*
D03*
X230000Y140000D02*
D03*
X235000Y130000D02*
D03*
X230000Y120000D02*
D03*
X235000Y110000D02*
D03*
X230000Y100000D02*
D03*
X235000Y90000D02*
D03*
X230000Y80000D02*
D03*
X235000Y70000D02*
D03*
X230000Y60000D02*
D03*
X225000Y170000D02*
D03*
X220000Y140000D02*
D03*
X225000Y130000D02*
D03*
X220000Y120000D02*
D03*
X225000Y110000D02*
D03*
X220000Y100000D02*
D03*
X225000Y90000D02*
D03*
Y70000D02*
D03*
X220000Y60000D02*
D03*
X215000Y170000D02*
D03*
X210000Y160000D02*
D03*
X215000Y150000D02*
D03*
Y70000D02*
D03*
X210000Y60000D02*
D03*
X205000Y170000D02*
D03*
X200000Y160000D02*
D03*
X205000Y150000D02*
D03*
Y70000D02*
D03*
X200000Y60000D02*
D03*
X195000Y170000D02*
D03*
X190000Y160000D02*
D03*
X195000Y70000D02*
D03*
X190000Y60000D02*
D03*
X185000Y170000D02*
D03*
X180000Y160000D02*
D03*
X185000Y70000D02*
D03*
X180000Y60000D02*
D03*
X175000Y170000D02*
D03*
X170000Y160000D02*
D03*
X175000Y70000D02*
D03*
X170000Y60000D02*
D03*
X165000Y170000D02*
D03*
X160000Y160000D02*
D03*
X165000Y70000D02*
D03*
X160000Y60000D02*
D03*
X155000Y170000D02*
D03*
X150000Y160000D02*
D03*
X155000Y150000D02*
D03*
X150000Y140000D02*
D03*
Y120000D02*
D03*
Y100000D02*
D03*
Y80000D02*
D03*
X155000Y70000D02*
D03*
X150000Y60000D02*
D03*
X145000Y170000D02*
D03*
X140000Y160000D02*
D03*
X145000Y150000D02*
D03*
X140000Y140000D02*
D03*
X145000Y130000D02*
D03*
X140000Y120000D02*
D03*
X145000Y110000D02*
D03*
X140000Y100000D02*
D03*
X145000Y90000D02*
D03*
X140000Y80000D02*
D03*
X145000Y70000D02*
D03*
X140000Y60000D02*
D03*
X135000Y170000D02*
D03*
X130000Y160000D02*
D03*
X135000Y150000D02*
D03*
X130000Y140000D02*
D03*
X135000Y130000D02*
D03*
X130000Y120000D02*
D03*
X135000Y110000D02*
D03*
X130000Y100000D02*
D03*
X135000Y90000D02*
D03*
X130000Y80000D02*
D03*
X135000Y70000D02*
D03*
X130000Y60000D02*
D03*
X125000Y170000D02*
D03*
Y150000D02*
D03*
Y130000D02*
D03*
Y110000D02*
D03*
Y90000D02*
D03*
Y70000D02*
D03*
X215000Y139500D02*
D03*
M02*
