M48
;Layer_Color=9474304
;FILE_FORMAT=2:5
INCH,LZ
;TYPE=PLATED
T1F00S00C0.01181
T2F00S00C0.03543
%
T01
X013Y006
X014
X015
X0155Y007
X0145
X0135
X0125
X013Y008
X014
X015
X0145Y009
X0135
X0125
X013Y01
X014
X015
X0145Y011
X0135
X0125
X013Y012
X014
X015
X0145Y013
X0135
X0125
X013Y014
X014
X015
X0155Y015
X0145
X0135
X0125
X0205
X0215
Y01395
X022Y014
X023
X0235Y015
Y013
X0225
X023Y012
X022
X0225Y011
X0235
X023Y01
X022
X0225Y009
X0235
X023Y008
X0235Y007
X0225
X0215
X0205
X0195
X0185
X0175
X0165
X017Y006
X018
X019
X02
X021
X022
X023
X016
Y016
X017
X018
X019
X02
X021
X0215Y017
X0225
X0235
X023Y016
X0205Y017
X0195
X0185
X0175
X0165
X0155
X0145
X0135
X0125
X013Y016
X014
X015
T02
X0159Y0086
Y0096
Y0106
Y0116
Y0126
Y0136
Y0146
X0169
Y0136
Y0126
Y0116
Y0106
Y0096
Y0086
M30
