G04*
G04 #@! TF.GenerationSoftware,Altium Limited,Altium Designer,21.4.1 (30)*
G04*
G04 Layer_Color=8388736*
%FSLAX25Y25*%
%MOIN*%
G70*
G04*
G04 #@! TF.SameCoordinates,70962A66-5B05-4BC0-AD96-6F7431C900D1*
G04*
G04*
G04 #@! TF.FilePolarity,Negative*
G04*
G01*
G75*
%ADD13R,0.05118X0.01181*%
%ADD14R,0.07087X0.07874*%
%ADD15R,0.06299X0.06299*%
%ADD16C,0.06299*%
D13*
X213811Y90409D02*
D03*
Y92378D02*
D03*
Y94346D02*
D03*
X146189Y84504D02*
D03*
Y86472D02*
D03*
Y92378D02*
D03*
Y94346D02*
D03*
Y100252D02*
D03*
Y102220D02*
D03*
Y108126D02*
D03*
Y110094D02*
D03*
Y116000D02*
D03*
Y119937D02*
D03*
Y121905D02*
D03*
Y127811D02*
D03*
Y129780D02*
D03*
X146189Y135685D02*
D03*
Y137654D02*
D03*
X146189Y147496D02*
D03*
Y145528D02*
D03*
Y143559D02*
D03*
Y141590D02*
D03*
X146189Y139622D02*
D03*
X146189Y133716D02*
D03*
Y131748D02*
D03*
X146189Y125842D02*
D03*
Y123874D02*
D03*
X146189Y117968D02*
D03*
Y114031D02*
D03*
Y112063D02*
D03*
Y106157D02*
D03*
Y104189D02*
D03*
Y98283D02*
D03*
Y96315D02*
D03*
Y90409D02*
D03*
X146189Y88441D02*
D03*
X213811Y147496D02*
D03*
Y145528D02*
D03*
Y139622D02*
D03*
Y137654D02*
D03*
Y131748D02*
D03*
Y129780D02*
D03*
Y123874D02*
D03*
Y121906D02*
D03*
Y116000D02*
D03*
Y112063D02*
D03*
Y110095D02*
D03*
Y104189D02*
D03*
Y102220D02*
D03*
Y96315D02*
D03*
Y84504D02*
D03*
Y86472D02*
D03*
Y88441D02*
D03*
Y98283D02*
D03*
Y100252D02*
D03*
Y106158D02*
D03*
Y108126D02*
D03*
Y114032D02*
D03*
Y117969D02*
D03*
Y119937D02*
D03*
Y125843D02*
D03*
Y127811D02*
D03*
Y133717D02*
D03*
Y135685D02*
D03*
Y141591D02*
D03*
Y143559D02*
D03*
D14*
X135362Y154583D02*
D03*
Y77417D02*
D03*
X224638Y77417D02*
D03*
Y154583D02*
D03*
D15*
X183500Y86000D02*
D03*
D16*
X173500D02*
D03*
X183500Y96000D02*
D03*
X173500D02*
D03*
X183500Y106000D02*
D03*
X173500D02*
D03*
X183500Y116000D02*
D03*
X173500D02*
D03*
X183500Y126000D02*
D03*
X173500D02*
D03*
X183500Y136000D02*
D03*
X173500D02*
D03*
Y146000D02*
D03*
X183500D02*
D03*
M02*
