M48
;Layer_Color=9474304
;FILE_FORMAT=2:5
INCH,LZ
;TYPE=PLATED
T1F00S00C0.01181
T2F00S00C0.03543
%
T01
X013Y006
X014
X015
X0155Y007
X0145
X0135
X0125
X013Y008
X0135Y009
X01405Y0089811
Y0092378
Y0094945
Y0098283
Y010222
Y0106158
X0135Y011
X0125
X013Y012
X0135Y013
X0141Y0130079
Y0127512
X014Y014
X013
X0125Y015
Y013
X0151Y0136
Y01395
X0155Y015
X013Y01
X0125Y009
X0165Y007
X0175
X0185
X0195
X0205
X0215
X0225
X0235
X023Y008
X0235Y009
X0225
X022Y0089811
Y0092378
Y0094945
Y0098283
Y010222
Y0106158
X0225Y011
X0235
X023Y012
X0235Y013
X0225
X0219Y0130079
Y0127512
X02185Y0136
X022Y014
X023
X0235Y015
X02095Y014
X016
Y006
X017
X018
X019
X02
X021
X022
X023
Y01
Y016
X022
X021
X02
X019
X018
X017
X016
X0165Y017
X0175
X0185
X0195
X0205
X0215
X0225
X0235
X0155
X0145
X0135
X0125
X013Y016
X014
X015
T02
X01735Y0086
X01835
Y0096
X01735
Y0106
X01835
Y0116
X01735
Y0126
X01835
Y0136
X01735
Y0146
X01835
M30
