G04 EasyEDA Pro v1.9.29.eba1c1, 2023-06-16 22:45:11*
G04 Gerber Generator version 0.3*G04*
G04 #@! TF.GenerationSoftware,Altium Limited,Altium Designer,21.4.1 (30)*
G04*
G04 Layer_Physical_Order=4*
G04 Layer_Color=16711680*
%FSLAX25Y25*%
%MOIN*%
G70*
G04*
G04 #@! TF.SameCoordinates,70962A66-5B05-4BC0-AD96-6F7431C900D1*
G04*
G04*
G04 #@! TF.FilePolarity,Positive*
G04*
G01*
G75*
%ADD15R,0.06299X0.06299*%
%ADD16C,0.06299*%
%ADD17C,0.00598*%
%ADD19C,0.01968*%
G36*
X241000Y52500D02*
X119000D01*
Y179500D01*
X241000D01*
Y52500D01*
D02*
G37*
%LPC*%
G36*
X183500Y149780D02*
X182522Y149652D01*
X181610Y149274D01*
X180827Y148673D01*
X180226Y147890D01*
X179848Y146978D01*
X179720Y146000D01*
X179848Y145022D01*
X180226Y144110D01*
X180827Y143327D01*
X181610Y142726D01*
X182522Y142348D01*
X183500Y142220D01*
X184478Y142348D01*
X185390Y142726D01*
X186173Y143327D01*
X186774Y144110D01*
X187152Y145022D01*
X187280Y146000D01*
X187152Y146978D01*
X186774Y147890D01*
X186173Y148673D01*
X185390Y149274D01*
X184478Y149652D01*
X183500Y149780D01*
D02*
G37*
G36*
Y139780D02*
X182522Y139652D01*
X181610Y139274D01*
X180827Y138673D01*
X180226Y137890D01*
X179848Y136978D01*
X179720Y136000D01*
X177280D01*
X177152Y136978D01*
X176774Y137890D01*
X176173Y138673D01*
X175390Y139274D01*
X174478Y139652D01*
X173500Y139780D01*
X172522Y139652D01*
X171610Y139274D01*
X170827Y138673D01*
X170226Y137890D01*
X169848Y136978D01*
X169720Y136000D01*
X152614D01*
X152491Y136618D01*
X152141Y137141D01*
X151618Y137491D01*
X151000Y137614D01*
X150382Y137491D01*
X149859Y137141D01*
X149509Y136618D01*
X149386Y136000D01*
X146921D01*
X142141Y131220D01*
X141618Y131570D01*
X141000Y131692D01*
X140383Y131570D01*
X139859Y131220D01*
X139509Y130696D01*
X139386Y130079D01*
X139509Y129461D01*
X139859Y128938D01*
Y128653D01*
X139509Y128129D01*
X139386Y127512D01*
X139509Y126894D01*
X139859Y126371D01*
X140383Y126021D01*
X141000Y125898D01*
Y108066D01*
X140613Y107749D01*
X140500Y107771D01*
X139883Y107648D01*
X139359Y107299D01*
X139009Y106775D01*
X138886Y106158D01*
X139009Y105540D01*
X139359Y105017D01*
X139883Y104667D01*
X140500Y104544D01*
X140634Y104189D01*
X140500Y103834D01*
X139883Y103711D01*
X139359Y103362D01*
X139009Y102838D01*
X138886Y102220D01*
X139009Y101603D01*
X139359Y101079D01*
X139883Y100730D01*
X140500Y100607D01*
X140634Y100252D01*
X140500Y99897D01*
X139883Y99774D01*
X139359Y99425D01*
X139009Y98901D01*
X138886Y98283D01*
X139009Y97666D01*
X139359Y97142D01*
X139734Y96892D01*
X139751Y96839D01*
Y96389D01*
X139734Y96336D01*
X139359Y96086D01*
X139009Y95562D01*
X138886Y94945D01*
X139009Y94327D01*
X139359Y93804D01*
Y93519D01*
X139009Y92995D01*
X138886Y92378D01*
X139009Y91760D01*
X139359Y91237D01*
Y90952D01*
X139009Y90429D01*
X138886Y89811D01*
X139009Y89193D01*
X139359Y88670D01*
X139883Y88320D01*
X140500Y88197D01*
X141118Y88320D01*
X141641Y88670D01*
X155811Y74500D01*
X207500D01*
X220000Y87000D01*
Y88197D01*
X220618Y88320D01*
X221141Y88670D01*
X221491Y89194D01*
X221614Y89811D01*
X221491Y90429D01*
X221287Y90733D01*
X221182Y91095D01*
X221287Y91456D01*
X221491Y91760D01*
X221614Y92378D01*
X221491Y92996D01*
X221287Y93300D01*
X221182Y93661D01*
X221287Y94023D01*
X221491Y94327D01*
X221614Y94945D01*
X221491Y95562D01*
X221141Y96086D01*
X220766Y96336D01*
X220749Y96389D01*
Y96840D01*
X220766Y96892D01*
X221141Y97142D01*
X221491Y97666D01*
X221614Y98283D01*
X221491Y98901D01*
X221141Y99425D01*
X220618Y99774D01*
X220000Y99897D01*
Y100607D01*
X220618Y100730D01*
X221141Y101079D01*
X221491Y101603D01*
X221614Y102220D01*
X221491Y102838D01*
X221141Y103362D01*
X220618Y103711D01*
X220000Y103834D01*
Y104544D01*
X220618Y104667D01*
X221141Y105017D01*
X221491Y105540D01*
X221614Y106158D01*
X221491Y106775D01*
X221141Y107299D01*
X220618Y107648D01*
X220000Y107771D01*
Y126277D01*
X220141Y126371D01*
X220491Y126894D01*
X220614Y127512D01*
X220491Y128129D01*
X220287Y128434D01*
X220182Y128795D01*
X220287Y129157D01*
X220491Y129461D01*
X220614Y130079D01*
X220491Y130696D01*
X220141Y131220D01*
X219618Y131570D01*
X219000Y131693D01*
X218383Y131570D01*
X217859Y131220D01*
X213079Y136000D01*
X187280D01*
X187152Y136978D01*
X186774Y137890D01*
X186173Y138673D01*
X185390Y139274D01*
X184478Y139652D01*
X183500Y139780D01*
D02*
G37*
G36*
X218500Y137614D02*
X217882Y137491D01*
X217359Y137141D01*
X217009Y136618D01*
X216886Y136000D01*
X217009Y135382D01*
X217359Y134859D01*
X217882Y134509D01*
X218500Y134386D01*
X219117Y134509D01*
X219641Y134859D01*
X219991Y135382D01*
X220114Y136000D01*
X219991Y136618D01*
X219641Y137141D01*
X219117Y137491D01*
X218500Y137614D01*
D02*
G37*
%LPD*%
D15*
X183500Y86000D02*
D03*
D16*
X173500D02*
D03*
X183500Y96000D02*
D03*
X173500D02*
D03*
X183500Y106000D02*
D03*
X173500D02*
D03*
X183500Y116000D02*
D03*
X173500D02*
D03*
X183500Y126000D02*
D03*
X173500D02*
D03*
X183500Y136000D02*
D03*
X173500D02*
D03*
Y146000D02*
D03*
X183500D02*
D03*
D17*
X140500Y106158D02*
X165157D01*
X170000Y111000D02*
X187500D01*
X165157Y106158D02*
X170000Y111000D01*
X186000Y91000D02*
X193283Y98283D01*
X170500Y91000D02*
X186000D01*
X193283Y98283D02*
X220000D01*
X141000Y127512D02*
X163488D01*
X170000Y121000D02*
X186000D01*
X163488Y127512D02*
X170000Y121000D01*
X192512Y127512D02*
X219000D01*
X186000Y121000D02*
X192512Y127512D01*
X170162Y130079D02*
X219000D01*
X170162Y130079D02*
X170162Y130079D01*
X187500Y111000D02*
X192342Y106158D01*
X220000D01*
X140500Y98283D02*
X163216D01*
X170500Y91000D01*
X140768Y101953D02*
X219732D01*
X140500Y102220D02*
X140768Y101953D01*
X219732D02*
X220000Y102220D01*
X150929Y89811D02*
X163370Y77370D01*
X194130D02*
X206571Y89811D01*
X165185Y79185D02*
X192315D01*
X205508Y92378D01*
X151992Y92378D02*
X165185Y79185D01*
X190500Y81000D02*
X204445Y94945D01*
X167000Y81000D02*
X190500D01*
X153055Y94945D02*
X167000Y81000D01*
X163370Y77370D02*
X194130D01*
X206571Y89811D02*
X220000D01*
X204445Y94945D02*
X220000D01*
X205508Y92378D02*
X220000D01*
X140500Y94945D02*
X153055D01*
X140500Y92378D02*
X151992D01*
X140500Y89811D02*
X150929D01*
X141000Y130079D02*
X170162D01*
D19*
X235000Y170000D02*
D03*
X230000Y160000D02*
D03*
X235000Y150000D02*
D03*
X230000Y140000D02*
D03*
X235000Y130000D02*
D03*
X230000Y120000D02*
D03*
X235000Y110000D02*
D03*
X230000Y100000D02*
D03*
X235000Y90000D02*
D03*
X230000Y80000D02*
D03*
X235000Y70000D02*
D03*
X230000Y60000D02*
D03*
X225000Y170000D02*
D03*
X220000Y160000D02*
D03*
Y140000D02*
D03*
X225000Y130000D02*
D03*
Y110000D02*
D03*
Y90000D02*
D03*
Y70000D02*
D03*
X220000Y60000D02*
D03*
X215000Y170000D02*
D03*
X210000Y160000D02*
D03*
X215000Y70000D02*
D03*
X210000Y60000D02*
D03*
X205000Y170000D02*
D03*
X200000Y160000D02*
D03*
X205000Y70000D02*
D03*
X200000Y60000D02*
D03*
X195000Y170000D02*
D03*
X190000Y160000D02*
D03*
X195000Y70000D02*
D03*
X190000Y60000D02*
D03*
X185000Y170000D02*
D03*
X180000Y160000D02*
D03*
X185000Y70000D02*
D03*
X180000Y60000D02*
D03*
X175000Y170000D02*
D03*
X170000Y160000D02*
D03*
X175000Y70000D02*
D03*
X170000Y60000D02*
D03*
X165000Y170000D02*
D03*
X160000Y160000D02*
D03*
Y140000D02*
D03*
X165000Y70000D02*
D03*
X160000Y60000D02*
D03*
X155000Y170000D02*
D03*
X150000Y160000D02*
D03*
X155000Y150000D02*
D03*
Y70000D02*
D03*
X150000Y60000D02*
D03*
X145000Y170000D02*
D03*
X140000Y160000D02*
D03*
Y140000D02*
D03*
X145000Y70000D02*
D03*
X140000Y60000D02*
D03*
X135000Y170000D02*
D03*
X130000Y160000D02*
D03*
Y140000D02*
D03*
X135000Y130000D02*
D03*
X130000Y120000D02*
D03*
X135000Y110000D02*
D03*
X130000Y100000D02*
D03*
X135000Y90000D02*
D03*
X130000Y80000D02*
D03*
X135000Y70000D02*
D03*
X130000Y60000D02*
D03*
X125000Y170000D02*
D03*
Y150000D02*
D03*
Y130000D02*
D03*
Y110000D02*
D03*
Y90000D02*
D03*
Y70000D02*
D03*
X140500Y106158D02*
D03*
Y98283D02*
D03*
Y102220D02*
D03*
X220000Y106158D02*
D03*
Y98283D02*
D03*
Y102220D02*
D03*
Y94945D02*
D03*
Y89811D02*
D03*
Y92378D02*
D03*
X140500Y94945D02*
D03*
Y89811D02*
D03*
Y92378D02*
D03*
X219000Y130079D02*
D03*
Y127512D02*
D03*
X141000Y130079D02*
D03*
Y127512D02*
D03*
X218500Y136000D02*
D03*
X151000D02*
D03*
X209500Y140000D02*
D03*
X151000Y139500D02*
D03*
M02*
