G04 EasyEDA Pro v1.9.29.eba1c1, 2023-06-16 22:45:11*
G04 Gerber Generator version 0.3*G04*
G04 #@! TF.GenerationSoftware,Altium Limited,Altium Designer,21.4.1 (30)*
G04*
G04 Layer_Physical_Order=2*
G04 Layer_Color=36540*
%FSLAX25Y25*%
%MOIN*%
G70*
G04*
G04 #@! TF.SameCoordinates,70962A66-5B05-4BC0-AD96-6F7431C900D1*
G04*
G04*
G04 #@! TF.FilePolarity,Positive*
G04*
G01*
G75*
%ADD16C,0.06299*%
%ADD19C,0.01968*%
G36*
X241000Y52500D02*
X119000D01*
Y179500D01*
X241000D01*
Y52500D01*
D02*
G37*
%LPC*%
G36*
X183500Y149780D02*
X182522Y149652D01*
X181610Y149274D01*
X180827Y148673D01*
X180226Y147890D01*
X179848Y146978D01*
X179720Y146000D01*
X179848Y145022D01*
X180226Y144110D01*
X180827Y143327D01*
X181610Y142726D01*
X182522Y142348D01*
X183500Y142220D01*
X184478Y142348D01*
X185390Y142726D01*
X186173Y143327D01*
X186774Y144110D01*
X187152Y145022D01*
X187280Y146000D01*
X187152Y146978D01*
X186774Y147890D01*
X186173Y148673D01*
X185390Y149274D01*
X184478Y149652D01*
X183500Y149780D01*
D02*
G37*
G36*
X218500Y137614D02*
X217882Y137491D01*
X217359Y137141D01*
X217009Y136618D01*
X216886Y136000D01*
X217009Y135382D01*
X217359Y134859D01*
X217882Y134509D01*
X218500Y134386D01*
X219117Y134509D01*
X219641Y134859D01*
X219991Y135382D01*
X220114Y136000D01*
X219991Y136618D01*
X219641Y137141D01*
X219117Y137491D01*
X218500Y137614D01*
D02*
G37*
G36*
X151000D02*
X150382Y137491D01*
X149859Y137141D01*
X149509Y136618D01*
X149386Y136000D01*
X149509Y135382D01*
X149859Y134859D01*
X150382Y134509D01*
X151000Y134386D01*
X151618Y134509D01*
X152141Y134859D01*
X152491Y135382D01*
X152614Y136000D01*
X152491Y136618D01*
X152141Y137141D01*
X151618Y137491D01*
X151000Y137614D01*
D02*
G37*
G36*
X183500Y139780D02*
X182522Y139652D01*
X181610Y139274D01*
X180827Y138673D01*
X180226Y137890D01*
X179848Y136978D01*
X179720Y136000D01*
X179848Y135022D01*
X180226Y134110D01*
X180827Y133327D01*
X181610Y132726D01*
X182522Y132348D01*
X183500Y132220D01*
X184478Y132348D01*
X185390Y132726D01*
X186173Y133327D01*
X186774Y134110D01*
X187152Y135022D01*
X187280Y136000D01*
X187152Y136978D01*
X186774Y137890D01*
X186173Y138673D01*
X185390Y139274D01*
X184478Y139652D01*
X183500Y139780D01*
D02*
G37*
G36*
X173500D02*
X172522Y139652D01*
X171610Y139274D01*
X170827Y138673D01*
X170226Y137890D01*
X169848Y136978D01*
X169720Y136000D01*
X169848Y135022D01*
X170226Y134110D01*
X170827Y133327D01*
X171610Y132726D01*
X172522Y132348D01*
X173500Y132220D01*
X174478Y132348D01*
X175390Y132726D01*
X176173Y133327D01*
X176774Y134110D01*
X177152Y135022D01*
X177280Y136000D01*
X177152Y136978D01*
X176774Y137890D01*
X176173Y138673D01*
X175390Y139274D01*
X174478Y139652D01*
X173500Y139780D01*
D02*
G37*
G36*
X219000Y131693D02*
X218383Y131570D01*
X217859Y131220D01*
X217509Y130696D01*
X217386Y130079D01*
X217509Y129461D01*
X217713Y129157D01*
X217818Y128795D01*
X217713Y128434D01*
X217509Y128129D01*
X217386Y127512D01*
X217509Y126894D01*
X217859Y126371D01*
X218383Y126021D01*
X219000Y125898D01*
X219618Y126021D01*
X220141Y126371D01*
X220491Y126894D01*
X220614Y127512D01*
X220491Y128129D01*
X220287Y128434D01*
X220182Y128795D01*
X220287Y129157D01*
X220491Y129461D01*
X220614Y130079D01*
X220491Y130696D01*
X220141Y131220D01*
X219618Y131570D01*
X219000Y131693D01*
D02*
G37*
G36*
X141000Y131692D02*
X140383Y131570D01*
X139859Y131220D01*
X139509Y130696D01*
X139386Y130079D01*
X139509Y129461D01*
X139859Y128938D01*
Y128653D01*
X139509Y128129D01*
X139386Y127512D01*
X139509Y126894D01*
X139859Y126371D01*
X140383Y126021D01*
X141000Y125898D01*
X141618Y126021D01*
X142141Y126371D01*
X142491Y126894D01*
X142614Y127512D01*
X142491Y128129D01*
X142141Y128653D01*
Y128938D01*
X142491Y129461D01*
X142614Y130079D01*
X142491Y130696D01*
X142141Y131220D01*
X141618Y131570D01*
X141000Y131692D01*
D02*
G37*
G36*
X183500Y129780D02*
X182522Y129652D01*
X181610Y129274D01*
X180827Y128673D01*
X180226Y127890D01*
X179848Y126978D01*
X179720Y126000D01*
X179848Y125022D01*
X180226Y124110D01*
X180827Y123327D01*
X181610Y122726D01*
X182522Y122348D01*
X183500Y122220D01*
X184478Y122348D01*
X185390Y122726D01*
X186173Y123327D01*
X186774Y124110D01*
X187152Y125022D01*
X187280Y126000D01*
X187152Y126978D01*
X186774Y127890D01*
X186173Y128673D01*
X185390Y129274D01*
X184478Y129652D01*
X183500Y129780D01*
D02*
G37*
G36*
X173500D02*
X172522Y129652D01*
X171610Y129274D01*
X170827Y128673D01*
X170226Y127890D01*
X169848Y126978D01*
X169720Y126000D01*
X169848Y125022D01*
X170226Y124110D01*
X170827Y123327D01*
X171610Y122726D01*
X172522Y122348D01*
X173500Y122220D01*
X174478Y122348D01*
X175390Y122726D01*
X176173Y123327D01*
X176774Y124110D01*
X177152Y125022D01*
X177280Y126000D01*
X177152Y126978D01*
X176774Y127890D01*
X176173Y128673D01*
X175390Y129274D01*
X174478Y129652D01*
X173500Y129780D01*
D02*
G37*
G36*
X183500Y119780D02*
X182522Y119652D01*
X181610Y119274D01*
X180827Y118673D01*
X180226Y117890D01*
X179848Y116978D01*
X179720Y116000D01*
X179848Y115022D01*
X180226Y114110D01*
X180827Y113327D01*
X181610Y112726D01*
X182522Y112348D01*
X183500Y112220D01*
X184478Y112348D01*
X185390Y112726D01*
X186173Y113327D01*
X186774Y114110D01*
X187152Y115022D01*
X187280Y116000D01*
X187152Y116978D01*
X186774Y117890D01*
X186173Y118673D01*
X185390Y119274D01*
X184478Y119652D01*
X183500Y119780D01*
D02*
G37*
G36*
X173500D02*
X172522Y119652D01*
X171610Y119274D01*
X170827Y118673D01*
X170226Y117890D01*
X169848Y116978D01*
X169720Y116000D01*
X169848Y115022D01*
X170226Y114110D01*
X170827Y113327D01*
X171610Y112726D01*
X172522Y112348D01*
X173500Y112220D01*
X174478Y112348D01*
X175390Y112726D01*
X176173Y113327D01*
X176774Y114110D01*
X177152Y115022D01*
X177280Y116000D01*
X177152Y116978D01*
X176774Y117890D01*
X176173Y118673D01*
X175390Y119274D01*
X174478Y119652D01*
X173500Y119780D01*
D02*
G37*
G36*
X220000Y107771D02*
X219383Y107648D01*
X218859Y107299D01*
X218509Y106775D01*
X218386Y106158D01*
X218509Y105540D01*
X218859Y105017D01*
X219383Y104667D01*
X220000Y104544D01*
X220618Y104667D01*
X221141Y105017D01*
X221491Y105540D01*
X221614Y106158D01*
X221491Y106775D01*
X221141Y107299D01*
X220618Y107648D01*
X220000Y107771D01*
D02*
G37*
G36*
X140500D02*
X139883Y107648D01*
X139359Y107299D01*
X139009Y106775D01*
X138886Y106158D01*
X139009Y105540D01*
X139359Y105017D01*
X139883Y104667D01*
X140500Y104544D01*
X141118Y104667D01*
X141641Y105017D01*
X141991Y105540D01*
X142114Y106158D01*
X141991Y106775D01*
X141641Y107299D01*
X141118Y107648D01*
X140500Y107771D01*
D02*
G37*
G36*
X183500Y109780D02*
X182522Y109652D01*
X181610Y109274D01*
X180827Y108673D01*
X180226Y107890D01*
X179848Y106978D01*
X179720Y106000D01*
X179848Y105022D01*
X180226Y104110D01*
X180827Y103327D01*
X181610Y102726D01*
X182522Y102348D01*
X183500Y102220D01*
X184478Y102348D01*
X185390Y102726D01*
X186173Y103327D01*
X186774Y104110D01*
X187152Y105022D01*
X187280Y106000D01*
X187152Y106978D01*
X186774Y107890D01*
X186173Y108673D01*
X185390Y109274D01*
X184478Y109652D01*
X183500Y109780D01*
D02*
G37*
G36*
X173500D02*
X172522Y109652D01*
X171610Y109274D01*
X170827Y108673D01*
X170226Y107890D01*
X169848Y106978D01*
X169720Y106000D01*
X169848Y105022D01*
X170226Y104110D01*
X170827Y103327D01*
X171610Y102726D01*
X172522Y102348D01*
X173500Y102220D01*
X174478Y102348D01*
X175390Y102726D01*
X176173Y103327D01*
X176774Y104110D01*
X177152Y105022D01*
X177280Y106000D01*
X177152Y106978D01*
X176774Y107890D01*
X176173Y108673D01*
X175390Y109274D01*
X174478Y109652D01*
X173500Y109780D01*
D02*
G37*
G36*
X220000Y103834D02*
X219383Y103711D01*
X218859Y103362D01*
X218509Y102838D01*
X218386Y102220D01*
X218509Y101603D01*
X218859Y101079D01*
X219383Y100730D01*
X220000Y100607D01*
X220618Y100730D01*
X221141Y101079D01*
X221491Y101603D01*
X221614Y102220D01*
X221491Y102838D01*
X221141Y103362D01*
X220618Y103711D01*
X220000Y103834D01*
D02*
G37*
G36*
X140500D02*
X139883Y103711D01*
X139359Y103362D01*
X139009Y102838D01*
X138886Y102220D01*
X139009Y101603D01*
X139359Y101079D01*
X139883Y100730D01*
X140500Y100607D01*
X141118Y100730D01*
X141641Y101079D01*
X141991Y101603D01*
X142114Y102220D01*
X141991Y102838D01*
X141641Y103362D01*
X141118Y103711D01*
X140500Y103834D01*
D02*
G37*
G36*
X183500Y99780D02*
X182522Y99652D01*
X181610Y99274D01*
X180827Y98673D01*
X180226Y97890D01*
X179848Y96978D01*
X179720Y96000D01*
X179848Y95022D01*
X180226Y94110D01*
X180827Y93327D01*
X181610Y92726D01*
X182522Y92348D01*
X183500Y92220D01*
X184478Y92348D01*
X185390Y92726D01*
X186173Y93327D01*
X186774Y94110D01*
X187152Y95022D01*
X187280Y96000D01*
X187152Y96978D01*
X186774Y97890D01*
X186173Y98673D01*
X185390Y99274D01*
X184478Y99652D01*
X183500Y99780D01*
D02*
G37*
G36*
X173500D02*
X172522Y99652D01*
X171610Y99274D01*
X170827Y98673D01*
X170226Y97890D01*
X169848Y96978D01*
X169720Y96000D01*
X169848Y95022D01*
X170226Y94110D01*
X170827Y93327D01*
X171610Y92726D01*
X172522Y92348D01*
X173500Y92220D01*
X174478Y92348D01*
X175390Y92726D01*
X176173Y93327D01*
X176774Y94110D01*
X177152Y95022D01*
X177280Y96000D01*
X177152Y96978D01*
X176774Y97890D01*
X176173Y98673D01*
X175390Y99274D01*
X174478Y99652D01*
X173500Y99780D01*
D02*
G37*
G36*
X220000Y99897D02*
X219383Y99774D01*
X218859Y99425D01*
X218509Y98901D01*
X218386Y98283D01*
X218509Y97666D01*
X218859Y97142D01*
X219234Y96892D01*
X219251Y96840D01*
Y96389D01*
X219234Y96336D01*
X218859Y96086D01*
X218509Y95562D01*
X218386Y94945D01*
X218509Y94327D01*
X218713Y94023D01*
X218818Y93661D01*
X218713Y93300D01*
X218509Y92996D01*
X218386Y92378D01*
X218509Y91760D01*
X218713Y91456D01*
X218818Y91094D01*
X218713Y90733D01*
X218509Y90429D01*
X218386Y89811D01*
X218509Y89194D01*
X218859Y88670D01*
X219383Y88320D01*
X220000Y88197D01*
X220618Y88320D01*
X221141Y88670D01*
X221491Y89194D01*
X221614Y89811D01*
X221491Y90429D01*
X221287Y90733D01*
X221182Y91095D01*
X221287Y91456D01*
X221491Y91760D01*
X221614Y92378D01*
X221491Y92996D01*
X221287Y93300D01*
X221182Y93661D01*
X221287Y94023D01*
X221491Y94327D01*
X221614Y94945D01*
X221491Y95562D01*
X221141Y96086D01*
X220766Y96336D01*
X220749Y96389D01*
Y96840D01*
X220766Y96892D01*
X221141Y97142D01*
X221491Y97666D01*
X221614Y98283D01*
X221491Y98901D01*
X221141Y99425D01*
X220618Y99774D01*
X220000Y99897D01*
D02*
G37*
G36*
X140500D02*
X139883Y99774D01*
X139359Y99425D01*
X139009Y98901D01*
X138886Y98283D01*
X139009Y97666D01*
X139359Y97142D01*
X139734Y96892D01*
X139751Y96839D01*
Y96389D01*
X139734Y96336D01*
X139359Y96086D01*
X139009Y95562D01*
X138886Y94945D01*
X139009Y94327D01*
X139359Y93804D01*
Y93519D01*
X139009Y92995D01*
X138886Y92378D01*
X139009Y91760D01*
X139359Y91237D01*
Y90952D01*
X139009Y90429D01*
X138886Y89811D01*
X139009Y89193D01*
X139359Y88670D01*
X139883Y88320D01*
X140500Y88197D01*
X141118Y88320D01*
X141641Y88670D01*
X141991Y89193D01*
X142114Y89811D01*
X141991Y90429D01*
X141641Y90952D01*
Y91237D01*
X141991Y91760D01*
X142114Y92378D01*
X141991Y92995D01*
X141641Y93519D01*
Y93804D01*
X141991Y94327D01*
X142114Y94945D01*
X141991Y95562D01*
X141641Y96086D01*
X141266Y96336D01*
X141249Y96389D01*
Y96839D01*
X141266Y96892D01*
X141641Y97142D01*
X141991Y97666D01*
X142114Y98283D01*
X141991Y98901D01*
X141641Y99425D01*
X141118Y99774D01*
X140500Y99897D01*
D02*
G37*
G36*
X187248Y89748D02*
X179752D01*
Y82252D01*
X187248D01*
Y89748D01*
D02*
G37*
G36*
X173500Y89780D02*
X172522Y89652D01*
X171610Y89274D01*
X170827Y88673D01*
X170226Y87890D01*
X169848Y86978D01*
X169720Y86000D01*
X169848Y85022D01*
X170226Y84110D01*
X170827Y83327D01*
X171610Y82726D01*
X172522Y82348D01*
X173500Y82220D01*
X174478Y82348D01*
X175390Y82726D01*
X176173Y83327D01*
X176774Y84110D01*
X177152Y85022D01*
X177280Y86000D01*
X177152Y86978D01*
X176774Y87890D01*
X176173Y88673D01*
X175390Y89274D01*
X174478Y89652D01*
X173500Y89780D01*
D02*
G37*
%LPD*%
D16*
Y146000D02*
D03*
D19*
X235000Y170000D02*
D03*
X230000Y160000D02*
D03*
X235000Y150000D02*
D03*
X230000Y140000D02*
D03*
X235000Y130000D02*
D03*
X230000Y120000D02*
D03*
X235000Y110000D02*
D03*
X230000Y100000D02*
D03*
X235000Y90000D02*
D03*
X230000Y80000D02*
D03*
X235000Y70000D02*
D03*
X230000Y60000D02*
D03*
X225000Y170000D02*
D03*
X220000Y160000D02*
D03*
Y140000D02*
D03*
X225000Y130000D02*
D03*
Y110000D02*
D03*
Y90000D02*
D03*
Y70000D02*
D03*
X220000Y60000D02*
D03*
X215000Y170000D02*
D03*
X210000Y160000D02*
D03*
X215000Y70000D02*
D03*
X210000Y60000D02*
D03*
X205000Y170000D02*
D03*
X200000Y160000D02*
D03*
X205000Y70000D02*
D03*
X200000Y60000D02*
D03*
X195000Y170000D02*
D03*
X190000Y160000D02*
D03*
X195000Y70000D02*
D03*
X190000Y60000D02*
D03*
X185000Y170000D02*
D03*
X180000Y160000D02*
D03*
X185000Y70000D02*
D03*
X180000Y60000D02*
D03*
X175000Y170000D02*
D03*
X170000Y160000D02*
D03*
X175000Y70000D02*
D03*
X170000Y60000D02*
D03*
X165000Y170000D02*
D03*
X160000Y160000D02*
D03*
Y140000D02*
D03*
X165000Y70000D02*
D03*
X160000Y60000D02*
D03*
X155000Y170000D02*
D03*
X150000Y160000D02*
D03*
X155000Y150000D02*
D03*
Y70000D02*
D03*
X150000Y60000D02*
D03*
X145000Y170000D02*
D03*
X140000Y160000D02*
D03*
Y140000D02*
D03*
X145000Y70000D02*
D03*
X140000Y60000D02*
D03*
X135000Y170000D02*
D03*
X130000Y160000D02*
D03*
Y140000D02*
D03*
X135000Y130000D02*
D03*
X130000Y120000D02*
D03*
X135000Y110000D02*
D03*
X130000Y100000D02*
D03*
X135000Y90000D02*
D03*
X130000Y80000D02*
D03*
X135000Y70000D02*
D03*
X130000Y60000D02*
D03*
X125000Y170000D02*
D03*
Y150000D02*
D03*
Y130000D02*
D03*
Y110000D02*
D03*
Y90000D02*
D03*
Y70000D02*
D03*
X209500Y140000D02*
D03*
X151000Y139500D02*
D03*
M02*
